<?xml version="1.0" encoding="utf-8"?>
<!-- Generator: Adobe Illustrator 18.1.1, SVG Export Plug-In . SVG Version: 6.00 Build 0)  -->
<svg version="1.1" id="Pattern" xmlns="http://www.w3.org/2000/svg" xmlns:xlink="http://www.w3.org/1999/xlink" x="0px" y="0px"
	 viewBox="0 0 800 800" enable-background="new 0 0 800 800" xml:space="preserve">
<pattern  x="-99.3" y="862.9" width="305.6" height="305.6" patternUnits="userSpaceOnUse" id="New_Pattern_Swatch_5" viewBox="0 -305.6 305.6 305.6" overflow="visible">
	<g>
		<polygon fill="none" points="0,0 305.6,0 305.6,-305.6 0,-305.6 		"/>
		<polygon fill="#405B7C" points="305.6,0 0,0 0,-305.6 305.6,-305.6 		"/>
		<g>
			<g>
				<path fill="#405B7C" d="M26.8-263c-2.8-0.5-11.9-2.2-13.8-0.5c-4,3.8,6.8,10.4,11.2,11.3"/>
				<g>
					<path fill="#78D1C4" d="M27.1-263.6c-3.4-0.6-6.8-1.2-10.3-1.3c-2.2,0-4.4,0.3-5.1,2.7c-0.7,2.4,2,4.7,3.6,6
						c2.4,2,5.6,3.7,8.6,4.4c0.5,0.1,1.2-0.9,0.6-1.1c-4.2-0.9-9.5-3.9-11.6-7.8c-2.7-5.1,11.6-2.3,13.6-1.9
						C27-262.4,27.7-263.5,27.1-263.6L27.1-263.6z"/>
				</g>
			</g>
			<g>
				<g>
					<path fill="#405B7C" d="M98.5-286.5c4.4-7.5-13.1-10.9-17.2-5.8"/>
					<g>
						<path fill="#78D1C4" d="M98.9-286.3c4.6-8.8-13.4-11.3-18-6.3c-0.5,0.6,0.2,1.1,0.7,0.6c3.7-4.1,20.3-1.9,16.5,5.4
							C97.7-285.9,98.6-285.7,98.9-286.3L98.9-286.3z"/>
					</g>
				</g>
				<g>
					<path fill="#405B7C" d="M78.1-292.9c-0.2-8.8-10.8-7.4-14.8-2.3"/>
					<g>
						<path fill="#78D1C4" d="M78.6-293.2c-0.6-9-11.2-7.6-15.7-2.4c-0.5,0.6,0.2,1.1,0.7,0.6c4.1-4.8,13.5-5.7,14,2.3
							C77.6-292,78.6-292.7,78.6-293.2L78.6-293.2z"/>
					</g>
				</g>
				<g>
					<path fill="#405B7C" d="M93.2-261.9c-14.5-4.2-52.3-33.1-37.2-33.5c13.4-0.3,34.5,4.5,43.4,9.3c14.8,7.5,12.4,7.7,9.3,13.3
						C108.6-272.8,99.7-260,93.2-261.9z"/>
					<g>
						<path fill="#78D1C4" d="M93.5-262.4c-9.9-3.1-19.1-9.9-27.2-16.2c-4-3.1-7.9-6.4-11.1-10.3c-1-1.2-1.9-2.5-2.2-4
							c-0.6-2.8,6.7-1.8,7.9-1.7c15.7,0.8,31.3,5,44.9,12.9c1.6,0.9,5,2.6,4.5,4.9c-0.3,1.3-1.4,3-2.2,4.1
							C105-268.5,99.4-261.3,93.5-262.4c-0.5-0.1-1.2,1-0.6,1.1c5.8,1.1,10.8-4.6,14.1-8.5c1.8-2.1,4.8-5.5,4.4-8.5
							c-0.3-2.1-3.3-3.5-4.7-4.4c-3.8-2.3-7.8-4.3-11.9-6c-9.7-3.9-20.4-5.9-30.7-6.9c-2.7-0.3-10.7-2-12.1,1.9
							c-1.1,3.1,3.7,7.2,5.5,9.1c5.3,5.3,11.5,9.8,17.7,14c5.5,3.7,11.4,7.4,17.7,9.3C93.4-261.2,94.1-262.2,93.5-262.4z"/>
					</g>
				</g>
			</g>
			<g>
				<path fill="#405B7C" d="M94.2-284.1c9.9-4,23.8-7.2,34.3-7.7c7.1,0.1,14.5,2.3,20.4,6.7c3,1.8,11.9,4,10.1,8.1
					c-4.4,10.4-129.6,38.9-139,38c-16.3-1.8-0.6-10.1,6.1-14.7c0,0,5-2,2.3-5.8l-8.2-22.3c0,0-2.4-4.2,2.3-5l3.5-0.8
					c0,0,4.6-0.4,6.9,3l12.3,19.8L94.2-284.1z"/>
				<g>
					<path fill="#78D1C4" d="M94.1-283.5c12.6-4.9,28.2-9.6,41.7-6.8c5.7,1.2,9.9,4.7,15.1,7c2.3,1,10.6,4,6.7,7.4
						c-3.1,2.7-7.7,4.2-11.5,5.6c-6.3,2.4-12.7,4.4-19.1,6.4c-30.5,9.2-61.8,16.8-93.2,22.6c-3.4,0.6-6.8,1.2-10.3,1.7
						c-3.4,0.4-13.3-0.2-8.8-5.3c2.4-2.7,6-4.6,9-6.6c1.4-0.9,3.7-1.9,4.8-3.3c2.1-2.8,0.1-5.6-1-8.5c-2-5.3-3.9-10.7-5.9-16
						c-0.4-1-0.6-2-1.1-2.9c-1.7-3.3,3.5-4.7,5.8-4.7c5.8,0,8.3,6.4,10.9,10.6c2.5,4,5,8,7.5,12c0.1,0.1,0.3,0.2,0.4,0.2
						C61.5-270.7,77.8-277.1,94.1-283.5c0.5-0.2,0.8-1.4,0.1-1.1c-11.3,4.5-22.7,8.9-34,13.4c-4.9,1.9-9.7,3.8-14.6,5.8
						c-0.6,0.2,0.2,0.5-0.2-0.1c-0.6-0.9-1.2-1.9-1.8-2.8c-2.2-3.5-4.3-6.9-6.5-10.4c-2.8-4.4-4.9-9.6-11.1-9.3
						c-3.8,0.2-8.9,2.1-6.5,6.7c2.8,5.3,4.3,11.7,6.4,17.4c0.7,1.9,3.4,7.1,1.3,9.1c-2.6,2.4-6.5,4.1-9.5,6.2
						c-4.3,3-8.9,7.9-1.3,9.9c3.4,0.9,6.7,0.3,10.1-0.2c13-2,25.9-5,38.7-7.9c16.9-3.8,33.7-8,50.3-12.7
						c12.4-3.5,25.2-6.9,36.9-12.4c2.2-1,4.5-2.1,6.2-3.9c3.2-3.6-2.8-6.5-5.4-7.6c-8.8-4-16-9.3-26.3-8.7
						c-11.2,0.7-22.6,3.6-33,7.6C93.7-284.4,93.4-283.3,94.1-283.5z"/>
				</g>
			</g>
			<g>
				<path fill="#405B7C" d="M33.7-250.1c-3.9,4.9-4.6,31.2,3.3,26.8c5.8-3.2,9.7-16.1,10.3-21.4c1.2-8.5-0.9-9.1-5.4-9
					C41.8-253.6,36.4-253.5,33.7-250.1z"/>
				<g>
					<path fill="#78D1C4" d="M33.4-250.4c-3.7,5.3-3.4,14.1-2.7,20.2c0.6,5.7,3.5,10.7,8.8,5.5c6-5.8,9-17.4,8.6-25.5
						C47.6-257.6,36.2-253.4,33.4-250.4c-0.5,0.6,0.1,1.1,0.7,0.6c2.5-2.7,5.9-3.3,9.3-3.2c4.6,0.1,3.8,5.3,3.4,8.5
						c-0.9,6.8-3.4,14.9-8.4,19.7c-5.7,5.5-6.8-6.4-6.9-9.6c-0.2-4.7-0.2-11.5,2.6-15.5C34.5-250.4,33.8-251,33.4-250.4z"/>
				</g>
			</g>
			<g>
				<g>
					<path fill="#405B7C" d="M113.6-248.2c8.8,2.1-1.3,17.7-8,17.1"/>
					<g>
						<path fill="#78D1C4" d="M113.3-247.7c8.5,2.5-1.6,16.2-7.6,16c-0.5,0-1.1,1.1-0.4,1.1c6.9,0.2,18.2-15.4,8.5-18.2
							C113.3-248.9,112.7-247.9,113.3-247.7L113.3-247.7z"/>
					</g>
				</g>
				<g>
					<path fill="#405B7C" d="M103.7-228.3c6.4,6.5-2.2,13.4-8.9,12.8"/>
					<g>
						<path fill="#78D1C4" d="M103.3-227.8c5.6,6.2-2,12.1-8.4,11.8c-0.5,0-1.1,1.1-0.4,1.1c7.4,0.4,15.8-6.9,9.5-13.8
							C103.7-229.2,102.9-228.2,103.3-227.8L103.3-227.8z"/>
					</g>
				</g>
				<g>
					<path fill="#405B7C" d="M91.3-261.9c-7.3,13.9-12.9,63.1-1.8,52.1c9.9-9.8,21.5-29.1,24.3-39.2c5.1-16.5,3.2-14.8-3.2-16.6
						C110.6-265.7,94.6-268.2,91.3-261.9z"/>
					<g>
						<path fill="#78D1C4" d="M90.9-262.1c-6.1,12.1-7.9,28-8.1,41.4c-0.1,3.7-0.5,9.5,2.3,12.4c3.1,3.1,9.1-6,10.2-7.3
							c6.7-8.2,12.5-17.6,16.8-27.3c2-4.4,3.2-9.1,4.4-13.7c0.6-2.2,1.2-4.8,0.5-7c-0.9-2.7-6.7-2.8-9.1-3
							C102.4-267,94.2-267.3,90.9-262.1c-0.4,0.7,0.5,0.9,0.9,0.3c2.9-4.6,25-6.9,24.4,1.6c-0.5,7.4-4,15.3-7.2,21.8
							c-4.2,8.3-9.4,16.2-15.3,23.4c-2.5,3.1-7.4,9.7-9.2,2.8c-1.3-4.9-0.7-10.5-0.4-15.5c0.9-11.2,2.5-23.9,7.6-34.1
							C92.1-262.5,91.2-262.7,90.9-262.1z"/>
					</g>
				</g>
			</g>
			<g>
				<path fill="#405B7C" d="M142.1-288.8c-0.3,6.2,4.3,7.9,9.4,5.5"/>
				<g>
					<path fill="#78D1C4" d="M141.5-288.7c-0.1,2.5,0.5,5,2.8,6.3c2.2,1.3,5,0.5,7.2-0.5c0.6-0.3,0.6-1.3-0.2-1
						c-1.9,0.9-4,1.3-6,0.6c-2.3-0.9-2.9-3.5-2.8-5.7C142.6-289.7,141.6-289.2,141.5-288.7L141.5-288.7z"/>
				</g>
			</g>
			<g>
				<g>
					<path fill="#405B7C" d="M50.7-258.2c1.6-2.8,5.8-0.2,3.5,2.1c-1.7,1.8-3.8-0.5-3.4-2.4L50.7-258.2z"/>
					<g>
						<path fill="#78D1C4" d="M51.1-258.1c0.8-1.3,3-0.9,3.2,0.6c0.2,0.9-1,1.7-1.8,1.3c-0.9-0.4-1.4-1.7-1.2-2.6
							c0.1-0.7-0.8-0.4-1,0c-0.1,0.1-0.1,0.2-0.2,0.3C49.9-257.6,50.8-257.5,51.1-258.1c0-0.1,0.1-0.2,0.2-0.3c-0.3,0-0.6,0-1,0
							c-0.2,1.4,0.5,3,2,3.5c1.4,0.4,2.9-1.1,3.1-2.4c0.2-1.2-0.7-2.2-1.8-2.5c-1.4-0.4-2.6,0.4-3.3,1.5
							C49.8-257.7,50.8-257.5,51.1-258.1z"/>
					</g>
				</g>
				<g>
					<path fill="#405B7C" d="M58.4-260.8c1.6-2.8,5.8-0.2,3.5,2.1c-1.7,1.8-3.8-0.5-3.4-2.4L58.4-260.8z"/>
					<g>
						<path fill="#78D1C4" d="M58.8-260.7c0.8-1.3,3-0.9,3.2,0.6c0.2,0.9-1,1.7-1.8,1.3c-0.9-0.4-1.4-1.7-1.2-2.6
							c0.1-0.7-0.8-0.4-1,0c0,0.1-0.1,0.2-0.2,0.3C57.6-260.2,58.5-260.1,58.8-260.7c0-0.1,0.1-0.2,0.2-0.3c-0.3,0-0.6,0-1,0
							c-0.2,1.4,0.5,3,2,3.5c1.4,0.4,2.9-1.1,3.1-2.4c0.2-1.2-0.7-2.2-1.8-2.5c-1.4-0.4-2.6,0.4-3.3,1.5
							C57.5-260.3,58.4-260.1,58.8-260.7z"/>
					</g>
				</g>
				<g>
					<path fill="#405B7C" d="M66-263.4c1.6-2.8,5.8-0.2,3.5,2.1c-1.7,1.8-3.8-0.5-3.4-2.4L66-263.4z"/>
					<g>
						<path fill="#78D1C4" d="M66.5-263.3c0.8-1.3,3-0.9,3.2,0.6c0.2,0.9-1,1.7-1.8,1.3c-0.9-0.4-1.4-1.7-1.2-2.6
							c0.1-0.7-0.8-0.4-1,0c0,0.1-0.1,0.2-0.2,0.3C65.2-262.9,66.2-262.7,66.5-263.3c0.1-0.1,0.1-0.2,0.2-0.3c-0.3,0-0.6,0-1,0
							c-0.2,1.4,0.5,3,2,3.5c1.4,0.4,2.9-1.1,3.1-2.4c0.2-1.2-0.7-2.2-1.8-2.5c-1.4-0.4-2.6,0.4-3.3,1.5
							C65.2-262.9,66.1-262.7,66.5-263.3z"/>
					</g>
				</g>
				<g>
					<path fill="#405B7C" d="M73.7-266c1.6-2.8,5.8-0.2,3.5,2.1c-1.7,1.8-3.8-0.5-3.4-2.4L73.7-266z"/>
					<g>
						<path fill="#78D1C4" d="M74.1-265.9c0.8-1.3,3-0.9,3.2,0.6c0.2,0.9-1,1.7-1.8,1.3c-0.9-0.4-1.4-1.7-1.2-2.6
							c0.1-0.7-0.8-0.4-1,0c0,0.1-0.1,0.2-0.2,0.3C72.9-265.5,73.8-265.3,74.1-265.9c0-0.1,0.1-0.2,0.2-0.3c-0.3,0-0.6,0-1,0
							c-0.2,1.4,0.5,3,2,3.5c1.4,0.4,2.9-1.1,3.1-2.4c0.2-1.2-0.7-2.2-1.8-2.5c-1.4-0.4-2.6,0.4-3.3,1.5
							C72.8-265.5,73.8-265.3,74.1-265.9z"/>
					</g>
				</g>
				<g>
					<path fill="#405B7C" d="M81.4-268.7c1.6-2.8,5.8-0.2,3.5,2.1c-1.7,1.8-3.8-0.5-3.4-2.4L81.4-268.7z"/>
					<g>
						<path fill="#78D1C4" d="M81.8-268.5c0.8-1.3,3-0.9,3.2,0.6c0.2,0.9-1,1.7-1.8,1.3c-0.9-0.4-1.4-1.7-1.2-2.6
							c0.1-0.7-0.8-0.4-1,0c-0.1,0.1-0.1,0.2-0.2,0.3C80.6-268.1,81.5-267.9,81.8-268.5c0.1-0.1,0.1-0.2,0.2-0.3c-0.3,0-0.6,0-1,0
							c-0.2,1.4,0.5,3,2,3.5c1.4,0.4,2.9-1.1,3.1-2.4c0.2-1.2-0.7-2.2-1.8-2.5c-1.4-0.4-2.6,0.4-3.3,1.5
							C80.5-268.1,81.5-267.9,81.8-268.5z"/>
					</g>
				</g>
				<g>
					<path fill="#405B7C" d="M89-271.3c1.6-2.8,5.8-0.2,3.5,2.1c-1.7,1.8-3.8-0.5-3.4-2.4L89-271.3z"/>
					<g>
						<path fill="#78D1C4" d="M89.5-271.1c0.8-1.3,3-0.9,3.2,0.6c0.2,0.9-1,1.7-1.8,1.3c-0.9-0.4-1.4-1.7-1.2-2.6
							c0.1-0.7-0.8-0.4-1,0c-0.1,0.1-0.1,0.2-0.2,0.3C88.3-270.7,89.2-270.5,89.5-271.1c0.1-0.1,0.1-0.2,0.2-0.3c-0.3,0-0.6,0-1,0
							c-0.2,1.4,0.5,3,2,3.5c1.4,0.4,2.9-1.1,3.1-2.4c0.2-1.2-0.7-2.2-1.8-2.5c-1.4-0.4-2.6,0.4-3.3,1.5
							C88.2-270.7,89.1-270.5,89.5-271.1z"/>
					</g>
				</g>
				<g>
					<path fill="#405B7C" d="M96.7-273.9c1.6-2.8,5.8-0.2,3.5,2.1c-1.7,1.8-3.8-0.5-3.4-2.4L96.7-273.9z"/>
					<g>
						<path fill="#78D1C4" d="M97.1-273.7c0.8-1.3,3-0.9,3.2,0.6c0.2,0.9-1,1.7-1.8,1.3c-0.9-0.4-1.4-1.7-1.2-2.6
							c0.1-0.7-0.8-0.4-1,0c-0.1,0.1-0.1,0.2-0.2,0.3C95.9-273.3,96.8-273.1,97.1-273.7c0-0.1,0.1-0.2,0.2-0.3c-0.3,0-0.6,0-1,0
							c-0.2,1.4,0.5,3,2,3.5c1.4,0.4,2.9-1.1,3.1-2.4c0.2-1.2-0.7-2.2-1.8-2.5c-1.4-0.4-2.6,0.4-3.3,1.5
							C95.9-273.3,96.8-273.1,97.1-273.7z"/>
					</g>
				</g>
				<g>
					<path fill="#405B7C" d="M104.4-276.5c1.6-2.8,5.8-0.2,3.5,2.1c-1.7,1.8-3.8-0.5-3.4-2.4L104.4-276.5z"/>
					<g>
						<path fill="#78D1C4" d="M104.8-276.3c0.8-1.3,3-0.9,3.2,0.6c0.2,0.9-1,1.7-1.8,1.3c-0.9-0.4-1.4-1.7-1.2-2.6
							c0.1-0.7-0.8-0.4-1,0c-0.1,0.1-0.1,0.2-0.2,0.3C103.6-275.9,104.5-275.7,104.8-276.3c0.1-0.1,0.1-0.2,0.2-0.3
							c-0.3,0-0.6,0-1,0c-0.2,1.4,0.5,3,2,3.5c1.4,0.4,2.9-1.1,3.1-2.4c0.2-1.2-0.7-2.2-1.8-2.5c-1.4-0.4-2.6,0.4-3.3,1.5
							C103.5-275.9,104.5-275.7,104.8-276.3z"/>
					</g>
				</g>
				<g>
					<path fill="#405B7C" d="M112.1-279.1c1.6-2.8,5.8-0.2,3.5,2.1c-1.7,1.8-3.8-0.5-3.4-2.4L112.1-279.1z"/>
					<g>
						<path fill="#78D1C4" d="M112.5-278.9c0.8-1.3,3-0.9,3.2,0.6c0.2,0.9-1,1.7-1.8,1.3c-0.9-0.4-1.4-1.7-1.2-2.6
							c0.1-0.7-0.8-0.4-1,0c-0.1,0.1-0.1,0.2-0.2,0.3C111.3-278.5,112.2-278.3,112.5-278.9c0-0.1,0.1-0.2,0.2-0.3c-0.3,0-0.6,0-1,0
							c-0.2,1.4,0.5,3,2,3.5c1.4,0.4,2.9-1.1,3.1-2.4c0.2-1.2-0.7-2.2-1.8-2.5c-1.4-0.4-2.6,0.4-3.3,1.5
							C111.2-278.5,112.1-278.4,112.5-278.9z"/>
					</g>
				</g>
			</g>
		</g>
		<g>
			<g>
				<g>
					<g>
						<path fill="#405B7C" d="M218.6-87.5c-0.1-3.7,12.6-2.5,10.4,1.9"/>
						<g>
							<path fill="#78D1C4" d="M219.1-87.6c0.1-3,11.1-1.8,9.5,1.9c-0.3,0.7,0.5,0.9,0.8,0.3c2.4-5.4-11-6.9-11.3-1.9
								C218-86.6,219-87.1,219.1-87.6L219.1-87.6z"/>
						</g>
					</g>
					<g>
						<path fill="#405B7C" d="M233.3-85.4c0.1-1.2,0.8-9.5,3.4-6c0.6,1.1-0.6,5.6-0.7,6.8"/>
						<g>
							<path fill="#78D1C4" d="M233.8-85.5c0.2-1.9,0.2-4.6,1.4-6.1c0.3-0.4,0.9,0.4,1,0.6c0.4,0.5,0.1,1.6,0,2.1
								c-0.2,1.5-0.6,2.9-0.8,4.4c-0.1,0.7,0.9,0.3,1-0.3c0.3-2,0.9-3.9,0.9-5.9c0-1-0.9-2.6-2.1-2.1c-1.2,0.5-1.5,2.1-1.8,3.2
								c-0.3,1.4-0.5,2.8-0.6,4.2C232.8-84.5,233.8-85,233.8-85.5L233.8-85.5z"/>
						</g>
					</g>
				</g>
				<g>
					<g>
						<path fill="#405B7C" d="M277.2-81c0.9-3.6-11.7-5.2-10.5-0.4"/>
						<g>
							<path fill="#78D1C4" d="M277.7-81.2c0.8-4.6-12.6-5.8-11.5,0c0.1,0.7,1.1,0,1-0.5c-0.7-3.7,10.1-2.6,9.5,0.8
								C276.6-80.2,277.6-80.7,277.7-81.2L277.7-81.2z"/>
						</g>
					</g>
					<g>
						<path fill="#405B7C" d="M262.3-82.2c0.1-1.2,1.3-9.4-2-6.6c-0.8,0.9-0.6,5.6-0.8,6.8"/>
						<g>
							<path fill="#78D1C4" d="M262.8-82.3c0.2-1.4,0.3-2.8,0.3-4.2c0-1,0-2.8-1.1-3.3c-1.3-0.6-2.3,1.2-2.5,2.1
								c-0.4,1.9-0.2,3.9-0.4,5.9c-0.1,0.7,0.9,0.3,1-0.3c0.1-1.4,0.1-2.9,0.2-4.3c0-0.6,0-1.7,0.5-2.1c0.4-0.4,0.8-0.4,1.1,0.1
								c0.5,1,0.3,2.5,0.3,3.6c0,0.9-0.2,1.9-0.3,2.8C261.8-81.3,262.8-81.8,262.8-82.3L262.8-82.3z"/>
						</g>
					</g>
				</g>
			</g>
			<g>
				<path fill="#405B7C" d="M266.4-88.4c-0.1,0.6,0.3,1.1-1.3,1.4c-1.4,0.3-4.9-0.3-7.2-0.6l-19.3-2.1c-2.2-0.3-5.8-0.4-7.1-1
					c-1.4-0.6-1-1.1-0.9-1.7l0.1-1.2c0.1-0.6-0.3-1.1,1.3-1.4c1.4-0.3,4.9,0.3,7.2,0.6l19.3,2.1c2.2,0.3,5.8,0.4,7.1,1
					c1.4,0.6,1,1.1,0.9,1.7L266.4-88.4z"/>
				<g>
					<path fill="#78D1C4" d="M266-88.3c0,1.5-16.3-0.8-17.9-0.9c-2.8-0.3-5.5-0.6-8.3-0.9c-2.8-0.3-8.9,0.3-8.5-3.6
						c0.2-1.7,16.2,0.8,17.9,0.9c2.8,0.3,5.5,0.6,8.3,0.9C260.3-91.6,266.4-92.2,266-88.3c-0.1,0.7,0.9,0.3,1-0.3
						c0.5-4.3-3.4-3.8-7-4.1c-3.5-0.3-6.9-0.8-10.4-1.1c-3.1-0.3-19.1-3.9-19.2,0.4c0,0.5-0.6,2.2,0,2.6c2.1,1.3,4.6,1.3,7,1.5
						c3.5,0.3,6.9,0.8,10.4,1.1c3.1,0.3,19.1,3.9,19.2-0.4C267-89.3,266-88.8,266-88.3z"/>
				</g>
			</g>
			<g>
				<path fill="#405B7C" d="M292.7-35.1c-0.9,8.4,0.1,15.9-7.5,21.6c-6.8,5.1-23.3,0.3-33.8-0.8l-22-2.4
					c-10.5-1.3-27.6-0.1-33.2-6.6c-6.2-7.3-3.6-14.4-2.7-22.8l1.9-17.4c0.9-8.4-0.1-15.9,7.5-21.6c6.8-5.1,23.3-0.3,33.8,0.8l22,2.4
					c10.5,1.3,27.6,0.1,33.2,6.6c6.2,7.3,3.6,14.4,2.6,22.8L292.7-35.1z"/>
				<g>
					<path fill="#78D1C4" d="M292.2-35c-0.6,6.3-0.3,12.8-4.2,18.2c-4.3,5.9-11.8,5.4-18.2,4.7c-7.8-0.8-15.4-2.4-23.2-3.2
						c-5.7-0.6-11.4-1.3-17.1-1.9c-9.9-1.1-22.1,0.5-31-4.8c-9.2-5.6-5.1-19-4.1-27.6c0.8-6.9,1.5-13.8,2.1-20.7
						c0.6-7.1,3.4-14.3,11-16.1c6-1.4,13,0.2,19,1.1c6.5,1.1,12.9,1.8,19.4,2.5c5,0.6,10,1.2,15,1.6c9.3,0.9,20.5-0.4,28.8,4.6
						c8.8,5.3,5.3,17.5,4.4,25.7C293.3-45.6,292.7-40.3,292.2-35c-0.1,0.7,0.9,0.3,1-0.3c0.6-5.6,1.2-11.2,1.9-16.9
						c1-8.6,3.6-18.3-4-24.9c-6.4-5.5-18.6-4.5-26.4-5c-6.2-0.4-12.4-1.2-18.5-1.9c-7.3-0.8-14.6-1.8-21.9-2.9
						c-7.6-1.2-18-3.2-23.8,3.4c-5.4,6.2-4.9,14.4-5.7,22.1c-0.7,6.6-1.3,13.2-2.3,19.7c-1,6.5-1.6,13.6,3.4,18.8
						c3.8,4,9.8,4.7,14.9,5.3c10.4,1.2,20.9,1.6,31.3,2.8c10.9,1.2,21.8,3.7,32.7,4.1c5.7,0.2,10.1-1.2,13.9-5.6
						c4.4-5.1,4-12.8,4.6-19C293.2-35.9,292.2-35.5,292.2-35z"/>
				</g>
			</g>
			<g>
				<g>
					<g>
						<path fill="#405B7C" d="M212.9-87.6c2.3,9.5-7.1,17.6-16.9,15.8"/>
						<g>
							<path fill="#78D1C4" d="M212.4-87.4c2,9.7-7.2,16.4-16.2,15c-0.5-0.1-1,1-0.3,1.1c9.8,1.5,19.6-6.3,17.5-16.6
								C213.2-88.6,212.3-87.9,212.4-87.4L212.4-87.4z"/>
						</g>
					</g>
					<g>
						<path fill="#405B7C" d="M282.8-79.9c-4.3,8.7,3.1,18.8,13,19.1"/>
						<g>
							<path fill="#78D1C4" d="M282.4-80.1c-4.2,9.6,3.3,19.1,13.2,19.8c0.5,0,1-1,0.3-1.1c-9.1-0.6-16.8-9.4-12.8-18.5
								C283.5-80.5,282.6-80.7,282.4-80.1L282.4-80.1z"/>
						</g>
					</g>
				</g>
				<g>
					<g>
						<path fill="#405B7C" d="M275.2-10.9c-2.3-9.5,7.1-17.6,16.9-15.8"/>
						<g>
							<path fill="#78D1C4" d="M275.7-11.1c-2-9.7,7.2-16.4,16.2-15c0.5,0.1,1-0.9,0.3-1.1c-9.8-1.5-19.6,6.3-17.5,16.6
								C274.8-10,275.8-10.6,275.7-11.1L275.7-11.1z"/>
						</g>
					</g>
					<g>
						<path fill="#405B7C" d="M205.3-18.6c4.3-8.7-3.1-18.8-13-19.1"/>
						<g>
							<path fill="#78D1C4" d="M205.7-18.4c4.2-9.6-3.3-19.1-13.2-19.8c-0.5,0-1,1-0.3,1.1c9.1,0.6,16.8,9.4,12.8,18.5
								C204.5-18,205.4-17.8,205.7-18.4L205.7-18.4z"/>
						</g>
					</g>
				</g>
			</g>
			<g>
				<g>
					<g>
						<path fill="#405B7C" d="M221.4-86.5c-1.6,14.6-2.2,29-4.5,43.2c-1.4,8.2-3.6,17-3.3,25.4"/>
						<g>
							<path fill="#78D1C4" d="M220.9-86.4c-1.2,11.4-1.9,22.9-3.3,34.3c-1.3,11.5-4.7,22.8-4.5,34.4c0,0.7,1,0.3,1-0.3
								c-0.2-11,2.9-21.7,4.3-32.6c1.6-12,2.2-24.1,3.5-36.1C222-87.4,221-86.9,220.9-86.4L220.9-86.4z"/>
						</g>
					</g>
					<g>
						<path fill="#405B7C" d="M226.1-86c-1.6,14.6-2.2,29-4.5,43.2c-1.4,8.2-3.6,17-3.3,25.4"/>
						<g>
							<path fill="#78D1C4" d="M225.6-85.9c-1.2,11.4-1.9,22.9-3.3,34.3c-1.3,11.5-4.7,22.8-4.5,34.4c0,0.7,1,0.3,1-0.3
								c-0.2-11,2.9-21.7,4.3-32.6c1.6-12,2.2-24.1,3.5-36.1C226.7-86.9,225.7-86.4,225.6-85.9L225.6-85.9z"/>
						</g>
					</g>
				</g>
				<g>
					<g>
						<path fill="#405B7C" d="M274.2-80.7c-1.6,14.6-4.2,28.8-5,43.2c-0.4,8.3-0.2,17.4-2.3,25.5"/>
						<g>
							<path fill="#78D1C4" d="M273.7-80.6c-1.3,11.4-3.1,22.8-4.3,34.2c-1.2,11.4-0.3,23.2-3,34.4c-0.2,0.8,0.8,0.6,0.9,0
								c2.6-10.7,1.9-21.9,2.9-32.9c1.1-12,3.1-24,4.4-36C274.8-81.6,273.7-81.1,273.7-80.6L273.7-80.6z"/>
						</g>
					</g>
					<g>
						<path fill="#405B7C" d="M269.5-81.2c-1.6,14.6-4.2,28.8-5,43.2c-0.4,8.3-0.2,17.4-2.3,25.5"/>
						<g>
							<path fill="#78D1C4" d="M269-81.1c-1.3,11.4-3.1,22.8-4.3,34.2c-1.2,11.4-0.3,23.2-3,34.4c-0.2,0.8,0.8,0.6,0.9,0
								c2.6-10.7,1.9-21.9,2.9-32.9c1.1-12,3.1-24,4.5-36C270.1-82.1,269.1-81.6,269-81.1L269-81.1z"/>
						</g>
					</g>
				</g>
			</g>
			<g>
				<g>
					<g>
						<path fill="#405B7C" d="M227.2-70.1c-0.1,0.5,0,0.9-0.5,1.2c-0.4,0.3-1.4,0-2.1-0.1l-5.6-0.6c-0.6-0.1-1.7,0-2-0.4
							c-0.4-0.4-0.2-0.8-0.2-1.3l0.1-1c0.1-0.5,0-0.9,0.5-1.2c0.4-0.3,1.4,0,2.1,0.1l5.6,0.6c0.6,0.1,1.7,0,2,0.4
							c0.4,0.4,0.2,0.8,0.2,1.3L227.2-70.1z"/>
						<g>
							<path fill="#78D1C4" d="M226.7-70c-0.1,1.1-4.9,0.2-5.6,0.1c-0.6-0.1-1.2-0.1-1.8-0.2c-0.8-0.1-2-0.1-1.9-1.3
								c0-0.3,0.1-0.7,0.1-1c0.1-1.2,4.9-0.2,5.6-0.1c0.6,0.1,1.2,0.1,1.8,0.2c0.8,0.1,2,0.1,1.9,1.3
								C226.8-70.7,226.8-70.3,226.7-70c-0.1,0.7,0.9,0.3,1-0.3c0.1-1.2,0.6-2.6-1-3c-1.1-0.3-2.5-0.2-3.7-0.4
								c-2.2-0.2-6.3-1.7-6.6,1.5c-0.1,1.2-0.6,2.6,1,3c1.1,0.3,2.5,0.2,3.7,0.4c2.2,0.2,6.3,1.7,6.6-1.5
								C227.8-71,226.8-70.5,226.7-70z"/>
						</g>
					</g>
					<g>
						<path fill="#405B7C" d="M275.3-64.8c-0.1,0.5,0,0.9-0.5,1.2c-0.4,0.3-1.4,0-2.1-0.1l-5.6-0.6c-0.6-0.1-1.7,0-2-0.4
							c-0.4-0.4-0.2-0.8-0.2-1.3l0.1-1c0.1-0.5,0-0.9,0.5-1.2c0.4-0.3,1.4,0,2.1,0.1l5.6,0.6c0.6,0.1,1.7,0,2,0.4
							c0.4,0.4,0.2,0.8,0.2,1.3L275.3-64.8z"/>
						<g>
							<path fill="#78D1C4" d="M274.8-64.7c-0.1,1.1-4.9,0.2-5.6,0.1c-0.6-0.1-1.2-0.1-1.8-0.2c-0.8-0.1-2-0.1-1.9-1.3
								c0-0.3,0.1-0.7,0.1-1c0.1-1.2,4.9-0.2,5.6-0.1c0.6,0.1,1.2,0.1,1.8,0.2c0.8,0.1,2,0.1,1.9,1.3
								C274.8-65.4,274.8-65,274.8-64.7c-0.1,0.7,0.9,0.3,1-0.3c0.1-1.2,0.6-2.6-1-3c-1.1-0.3-2.5-0.2-3.7-0.4
								c-2.2-0.2-6.3-1.7-6.6,1.5c-0.1,1.2-0.6,2.6,1,3c1.1,0.3,2.5,0.2,3.7,0.4c2.2,0.2,6.3,1.7,6.6-1.5
								C275.8-65.7,274.8-65.2,274.8-64.7z"/>
						</g>
					</g>
				</g>
				<g>
					<g>
						<path fill="#405B7C" d="M223-31.5c-0.1,0.5,0,0.9-0.5,1.2c-0.4,0.3-1.4,0-2.1-0.1l-5.6-0.6c-0.6-0.1-1.7,0-2-0.4
							c-0.4-0.4-0.2-0.8-0.2-1.3l0.1-1c0.1-0.5,0-0.9,0.5-1.2c0.4-0.3,1.4,0,2.1,0.1l5.6,0.6c0.6,0.1,1.7,0,2,0.4
							c0.4,0.4,0.2,0.8,0.2,1.3L223-31.5z"/>
						<g>
							<path fill="#78D1C4" d="M222.5-31.4c-0.1,1.1-4.9,0.2-5.6,0.1c-0.6-0.1-1.2-0.1-1.8-0.2c-0.8-0.1-2-0.1-1.9-1.3
								c0-0.3,0.1-0.7,0.1-1c0.1-1.2,4.9-0.2,5.6-0.1c0.6,0.1,1.2,0.1,1.8,0.2c0.8,0.1,2,0.1,1.9,1.3
								C222.5-32.1,222.5-31.7,222.5-31.4c-0.1,0.7,0.9,0.3,1-0.3c0.1-1.2,0.6-2.6-1-3c-1.1-0.3-2.5-0.2-3.7-0.4
								c-2.2-0.2-6.3-1.7-6.6,1.5c-0.1,1.2-0.6,2.6,1,3c1.1,0.3,2.5,0.2,3.7,0.4c2.2,0.2,6.3,1.7,6.6-1.5
								C223.5-32.4,222.5-31.9,222.5-31.4z"/>
						</g>
					</g>
					<g>
						<path fill="#405B7C" d="M271-26.2c-0.1,0.5,0,0.9-0.5,1.2c-0.4,0.3-1.4,0-2.1-0.1l-5.6-0.6c-0.6-0.1-1.7,0-2-0.4
							c-0.4-0.4-0.2-0.8-0.2-1.3l0.1-1c0.1-0.5,0-0.9,0.5-1.2c0.4-0.3,1.4,0,2.1,0.1l5.6,0.6c0.6,0.1,1.7,0,2,0.4
							c0.4,0.4,0.2,0.8,0.2,1.3L271-26.2z"/>
						<g>
							<path fill="#78D1C4" d="M270.5-26.1c-0.1,1.1-4.9,0.2-5.6,0.1c-0.6-0.1-1.2-0.1-1.8-0.2c-0.8-0.1-2.1-0.1-1.9-1.3
								c0-0.3,0.1-0.7,0.1-1c0.1-1.2,4.9-0.2,5.6-0.1c0.6,0.1,1.2,0.1,1.8,0.2c0.8,0.1,2,0.1,1.9,1.3
								C270.6-26.8,270.6-26.4,270.5-26.1c-0.1,0.7,0.9,0.3,1-0.3c0.1-1.2,0.6-2.6-1-3c-1.1-0.3-2.5-0.2-3.7-0.4
								c-2.2-0.2-6.3-1.7-6.6,1.5c-0.1,1.2-0.6,2.6,1,3c1.1,0.3,2.5,0.2,3.7,0.4c2.2,0.2,6.3,1.7,6.6-1.5
								C271.6-27.1,270.6-26.6,270.5-26.1z"/>
						</g>
					</g>
				</g>
			</g>
		</g>
		<g>
			<g>
				<g>
					<path fill="#405B7C" d="M54.6-111.8c3.2-10.5,3.6-15.2,12.5-22.8c10.2-8.1,19-14.6,23.6-27.9c7.8-23.2-8.6-41.7-32.2-44.8
						l-6.9-0.5c-23.7-0.7-42.8,15.1-38.8,39.2c2.5,13.9,10.2,21.6,18.9,31.2c7.6,8.9,7.3,13.7,8.8,24.5L54.6-111.8z"/>
					<g>
						<path fill="#78D1C4" d="M55.1-111.8c1.5-5,2.7-10.2,5.3-14.7c3.4-5.9,9.6-9.7,14.8-14c8.3-7,14.6-15.4,17.2-26
							c5-20.8-11.5-36.9-30.7-40.7c-15.6-3.1-35,0.5-44.4,14.6c-5.5,8.3-6.4,18-4.2,27.6c2.7,11.3,10.8,19.9,18.4,28.2
							c6.4,7.1,7.4,15.2,8.7,24.3c0,0.2,0.2,0.3,0.3,0.3c4.7,0.4,9.3,0.7,14,1.1c0.5,0,1.1-1.1,0.4-1.1c-2.8-0.2-5.6-0.4-8.5-0.7
							c-1.6-0.1-3.1-0.2-4.7-0.4c-1.2-0.1-1.2-5.5-1.4-6.9c-1.6-11.4-8.8-18-15.9-26.5c-8.7-10.4-13.8-23.9-10.2-37.4
							c3.2-11.8,14.1-19.2,25.5-22c19.7-4.8,45.5,3.7,51.5,24.6c3.9,13.3-2.9,27.2-12.3,36.5c-7,6.9-16.9,11.8-20.9,21.3
							c-1.6,3.9-2.7,8-3.9,12C53.8-111.1,54.9-111.3,55.1-111.8z"/>
					</g>
				</g>
				<g>
					<g>
						<path fill="#405B7C" d="M43.6-207.3c-12.6,16.1-9.4,28.2-4.3,46.9c4.7,16.3,5.9,30.9,4.6,47.3"/>
						<g>
							<path fill="#78D1C4" d="M43.3-207.6c-8.6,11.4-10.3,22.9-7.3,36.7c2,9.2,4.9,18,6.4,27.3c1.6,10.2,1.7,20.5,0.9,30.7
								c-0.1,0.8,1,0.3,1-0.3c1.2-16.8-0.6-32.8-5-49.1c-1.9-7-3.8-14.1-4-21.4c-0.3-8.8,3.4-16.5,8.6-23.4
								C44.4-207.6,43.7-208.2,43.3-207.6L43.3-207.6z"/>
						</g>
					</g>
					<g>
						<path fill="#405B7C" d="M66.4-205.5c9.9,17.9,4.8,29.3-3.1,47c-7.2,15.4-10.7,29.6-12,46"/>
						<g>
							<path fill="#78D1C4" d="M65.9-205.1c4.1,7.7,6.2,15.4,5,24.1c-1.2,8.4-5.3,16.5-8.8,24.1c-6.5,14.1-10,29.2-11.3,44.6
								c-0.1,0.8,1,0.3,1-0.3c0.8-9.3,2.3-18.5,4.9-27.4c2.5-8.7,6.4-16.8,9.9-25c2.9-6.6,5.3-13.3,5.7-20.6
								c0.4-7.2-2.2-14.1-5.5-20.3C66.6-206.4,65.7-205.6,65.9-205.1L65.9-205.1z"/>
						</g>
					</g>
				</g>
			</g>
			<g>
				<path fill="#405B7C" d="M46.9-97.2c8.2,1.6,11.1,0.5,8.2,7.2c-1.9,4.4-2.6,8.3-8.9,7.5l-1.7-0.1c-6.3-0.2-6.4-4.1-7.6-8.8
					c-1.8-7,0.8-5.5,9.2-5.8L46.9-97.2z"/>
				<g>
					<path fill="#78D1C4" d="M46.6-96.7c2.1,0.4,4.1,0.7,6.2,1.1c2.4,0.5,3.2,1.5,2.4,3.9c-0.6,2-1.6,4.1-2.6,6
						c-1.6,3.1-4.9,2.6-7.8,2.4c-6-0.5-6.6-4.4-7.8-9.4c-0.7-3,0.4-4,3.3-4.1c2.1,0,4.3-0.2,6.3,0c0.5,0,1.1-1.1,0.4-1.1
						c-2.3-0.2-10.9-1.5-11.3,2.5c-0.3,2.8,0.8,6,1.7,8.6c0.9,2.8,2.9,4,5.7,4.5c2.7,0.4,5.7,0.7,8.1-0.7c2.4-1.4,3.3-4.8,4.3-7.1
						c0.5-1.3,2-4.1,0.6-5.5c-2-1.9-6.4-1.8-9-2.3C46.6-97.8,46-96.8,46.6-96.7z"/>
				</g>
			</g>
			<g>
				<g>
					<path fill="#405B7C" d="M40.9-112.9c-1,5.3-2.6,10.5-3.6,15.8"/>
					<g>
						<path fill="#78D1C4" d="M40.3-112.8c-1.1,5.3-2.6,10.5-3.6,15.8c-0.1,0.7,0.9,0.3,1-0.3c1.1-5.3,2.6-10.5,3.6-15.8
							C41.5-113.8,40.4-113.3,40.3-112.8L40.3-112.8z"/>
					</g>
				</g>
				<g>
					<path fill="#405B7C" d="M54.3-111.9c0.2,5.4,0.9,10.8,1.1,16.1"/>
					<g>
						<path fill="#78D1C4" d="M53.8-111.6c0.2,5.4,0.9,10.8,1.1,16.1c0,0.7,1.1,0,1-0.5c-0.2-5.4-0.9-10.8-1.1-16.1
							C54.8-112.8,53.8-112.1,53.8-111.6L53.8-111.6z"/>
					</g>
				</g>
				<g>
					<path fill="#405B7C" d="M47.4-112.4c-0.3,4.4-0.5,10.5-1,15.2"/>
					<g>
						<path fill="#78D1C4" d="M46.8-112.3c-0.4,5.1-0.5,10.1-1,15.2c-0.1,0.8,1,0.3,1-0.3c0.6-5,0.7-10.1,1-15.2
							C47.9-113.3,46.9-112.8,46.8-112.3L46.8-112.3z"/>
					</g>
				</g>
			</g>
			<g>
				<g>
					<g>
						<path fill="#405B7C" d="M37.3-96c-0.3,1.4,1,3.1,2.6,2.8c1.4-0.3,1.8-2.1,1.9-3.3"/>
						<g>
							<path fill="#78D1C4" d="M36.7-95.9c-0.3,1.6,1,3.5,2.8,3.2c1.9-0.3,2.6-2.4,2.7-4c0.1-0.8-1-0.3-1,0.3
								c-0.1,1-0.3,2.3-1.4,2.6c-1.3,0.4-2.3-1.3-2.1-2.4C37.9-96.9,36.8-96.4,36.7-95.9L36.7-95.9z"/>
						</g>
					</g>
					<g>
						<path fill="#405B7C" d="M41.9-97c-0.2,1.4,0.1,4.1,2.3,3.7c1.8-0.3,1.5-2.6,2.2-3.7"/>
						<g>
							<path fill="#78D1C4" d="M41.4-96.9c-0.2,1.6,0.1,3.9,2,4.2c0.9,0.1,1.9-0.4,2.4-1.2c0.5-0.9,0.5-2,1-2.9
								c0.4-0.7-0.5-0.9-0.9-0.3c-0.6,1.1-0.4,3.3-2,3.4c-1.6,0.1-1.7-2.3-1.5-3.4C42.5-97.9,41.5-97.4,41.4-96.9L41.4-96.9z"/>
						</g>
					</g>
				</g>
				<g>
					<g>
						<path fill="#405B7C" d="M55.2-94.6c0.1,1.5-1.5,2.9-3,2.3c-1.3-0.5-1.5-2.3-1.4-3.6"/>
						<g>
							<path fill="#78D1C4" d="M54.7-94.5c0,1.4-1.4,2.3-2.6,1.4c-0.8-0.6-0.8-2-0.8-2.9c0.1-0.8-1-0.3-1,0.3
								c-0.1,1.5,0.2,3.5,1.9,4c1.8,0.6,3.6-1.4,3.6-3.1C55.8-95.5,54.7-95,54.7-94.5L54.7-94.5z"/>
						</g>
					</g>
					<g>
						<path fill="#405B7C" d="M50.8-96.3c0,1.5-0.8,4.1-2.8,3.3c-1.7-0.6-1.1-2.8-1.6-4"/>
						<g>
							<path fill="#78D1C4" d="M50.3-96.2c0,1.2-0.4,3.1-2,2.7c-1.5-0.4-1-2.6-1.4-3.8c-0.2-0.7-1.2,0-1,0.5c0.3,1,0.1,2,0.5,2.9
								c0.3,1,1.2,1.5,2.2,1.5c1.9,0,2.7-2.6,2.7-4.2C51.3-97.2,50.3-96.7,50.3-96.2L50.3-96.2z"/>
						</g>
					</g>
				</g>
			</g>
		</g>
		<g>
			<g>
				<g>
					<path fill="#405B7C" d="M273.1-111.6l2.8,0.3c8.5,0.3,7,1.7,8.5-2.9c1.1-4,0.9-9.5,1.3-13.5c1.1-11.2,2.4-21.3-1.5-32
						c-0.6-1.6-1.2-4.5-2.2-5.8c-1.4-1.8-1.5-1.6-3.8-1.6l-2.8-0.3c-2.2-0.4-2.3-0.6-4,0.9c-1.3,1.1-2.4,3.8-3.3,5.3
						c-6,9.7-6.6,19.9-7.7,31.1c-0.4,4.1-1.6,9.4-1.3,13.5c0.5,4.8-0.6,3.1,7.7,4.5l2.8,0.3L273.1-111.6z"/>
					<g>
						<path fill="#78D1C4" d="M272.9-111c2.3,0.2,8.9,2.1,10.6,0.2c1.1-1.2,1.3-3.3,1.7-4.8c1-4.6,0.8-9.5,1.2-14.1
							c1.1-11,1.4-20.8-2.1-31.4c-0.6-1.8-1.2-5.5-3.4-6.3c-1.9-0.7-4.6-0.5-6.6-0.8c-4.8-0.6-8,8.3-9.3,11.5
							c-4,9.5-4.3,19.4-5.6,29.5c-0.3,2.5-3.1,13.1,0.4,14.7C263.4-111,269-111.4,272.9-111c0.5,0.1,1.1-1,0.4-1.1
							c-2.7-0.3-5.3-0.5-8-0.9c-1.1-0.2-5.1,0.1-5.6-1.3c-0.8-2.6-0.3-5.9,0-8.5c0.8-7,1.5-14.2,2.6-21.2c0.6-3.8,1.6-7.5,3-11.1
							c1.1-3,5.1-12.7,9.6-11.8c1,0.2,2,0.2,3,0.3c4.2,0.4,4.5,3.8,5.7,7.3c3,8.6,2.8,17.3,2,26.3c-0.6,6.7-0.4,13.9-2.3,20.4
							c-0.7,2.5-7.9,0.8-10.1,0.5C272.8-112.2,272.2-111.1,272.9-111z"/>
					</g>
				</g>
				<g>
					<path fill="#405B7C" d="M277.3-147.7c4.5,0.4,5.5-0.2,5.9,4.1c0.3,4.5-0.4,9.2-0.8,13.7c-0.3,3-0.2,7-1,9.9
						c-1.1,3.4-0.8,1.8-6.2,2.1l-6.4-0.6c-6.1-1-5.3,0.2-5.7-3.3c-0.2-3,0.7-7,1-9.9c0.4-4.5,0.7-9.2,1.8-13.6
						c1.2-4.2,2.1-3.3,6.6-2.9L277.3-147.7z"/>
					<g>
						<path fill="#78D1C4" d="M277.1-147.2c1.5,0.1,4-0.2,5,1.2c1.3,1.8,0.6,5.6,0.5,7.6c-0.2,4.8-0.9,9.5-1.2,14.3
							c-0.1,1.1,0,5.7-1.9,5.7c-1.4,0-2.8-0.1-4.2-0.1c-2,0.1-4.2-0.4-6.2-0.6c-1.3-0.1-2.5-0.3-3.8-0.5c-2-0.2-1.7-2.1-1.7-3.8
							c-0.1-4.5,1.1-9.2,1.5-13.7c0.4-4.3,0.1-11.5,6-10.8C273-147.5,275.1-147.4,277.1-147.2c0.5,0.1,1.1-1,0.4-1.1
							c-3-0.3-6.6-1.2-9.6-0.8c-3,0.4-3.3,6.9-3.6,8.9c-0.9,6.1-2.3,13.4-1.7,19.5c0.3,3.1,3.3,2.4,5.9,2.7
							c3.6,0.5,7.1,0.4,10.7,0.7c2.2,0.2,2.7-2.5,3-4.2c0.9-6.6,1.9-14.1,1.6-20.8c-0.2-5.3-1.4-5.7-6.3-6.1
							C276.9-148.3,276.4-147.2,277.1-147.2z"/>
					</g>
				</g>
				<g>
					<g>
						<path fill="#405B7C" d="M271-142.5c1.3,4.4-0.8,5.9-0.7,9.7c0.1,1.8,1.2,3.1,1,4.9c-0.4,1.7-2.3,2.8-2.2,5"/>
						<g>
							<path fill="#78D1C4" d="M270.5-142.3c0.8,3.5-1.3,6.4-0.7,9.7c0.4,2.6,1.6,4.3-0.2,6.8c-0.7,1-0.9,1.9-1,3
								c-0.1,0.8,1,0.3,1-0.3c0.2-1.9,1.6-3.2,2.2-4.9c0.4-1.1-0.4-2.9-0.8-3.9c-0.7-2.1,0.3-4.4,0.7-6.5c0.3-1.5,0.1-3-0.3-4.5
								C271.4-143.5,270.4-142.8,270.5-142.3L270.5-142.3z"/>
						</g>
					</g>
					<g>
						<path fill="#405B7C" d="M275.8-142.1c1.3,4.4-0.8,5.9-0.7,9.7c0.1,1.8,1.2,3.1,1,4.9c-0.4,1.7-2.3,2.8-2.3,5"/>
						<g>
							<path fill="#78D1C4" d="M275.3-141.8c0.8,3.5-1.3,6.4-0.7,9.7c0.4,2.6,1.6,4.3-0.2,6.8c-0.7,1-0.9,1.9-1,3
								c-0.1,0.8,1,0.3,1-0.3c0.2-1.9,1.6-3.2,2.2-4.9c0.4-1.1-0.4-2.9-0.8-3.9c-0.7-2.1,0.3-4.4,0.7-6.5c0.3-1.5,0.1-3-0.3-4.5
								C276.2-143,275.2-142.3,275.3-141.8L275.3-141.8z"/>
						</g>
					</g>
				</g>
				<g>
					<path fill="#405B7C" d="M277.8-163c1.8,1.7,0.2,5.3-2.4,4.5c-3.1-1.3-1.5-4.9,1.2-4.9L277.8-163z"/>
					<g>
						<path fill="#78D1C4" d="M277.4-162.5c0.8,0.8,0.8,1.9,0.3,2.8c-0.7,1.2-2.3,0.8-3.1,0c-0.8-0.8-0.4-2.1,0.5-2.7
							c0.9-0.6,1.6-0.3,2.4,0c0.5,0.2,1.2-0.9,0.6-1.1c-0.6-0.2-1.1-0.4-1.8-0.4c-0.8,0.1-1.6,0.5-2.2,1.1c-1.1,1.1-1.4,2.8-0.4,4.1
							c2.6,3.2,7.2-1.9,4.4-4.7C277.8-163.8,277-162.9,277.4-162.5z"/>
					</g>
				</g>
			</g>
			<g>
				<path fill="#405B7C" d="M275.8-163.5c2.3-2.9,1.7-5.6,1.5-9c-0.4-4.9-0.4-10.1,1-14.8c1.9-5.4,5.2-9.5,11.1-10.5
					c4.5-0.7,11.2-0.7,12.5,4.8c1.7,7.5-8,7-12.5,9.5c-5.7,3.2-4.9,8.9-7.2,14c-1.1,2.6-3.1,4.8-5.3,6.4"/>
				<g>
					<path fill="#78D1C4" d="M276.3-163.4c1.4-2.1,1.8-4,1.8-6.5c-0.1-4.7-0.5-9.2,0.1-13.9c0.9-6.9,5.1-12.7,12.2-13.6
						c4.3-0.6,9.5-0.2,11,4.6c2,6.3-11,7.4-14.6,10.6c-1.7,1.6-2.5,4-3.2,6.1c-1.5,5-2.6,9-7,12.5c-0.5,0.4-0.2,1.3,0.4,0.8
						c3.2-2.5,5.3-5.5,6.5-9.4c0.8-2.5,1.2-5,2.3-7.3c1.7-3.5,5.3-4.4,8.7-5.3c5.4-1.5,10.3-4.6,6.8-10.8c-3.5-6.3-15.3-2.7-19.3,1
						c-2.5,2.3-4.2,6-4.8,9.2c-0.6,3.1-0.9,6.2-0.8,9.4c0.2,4.2,1.2,8.6-1.3,12.3C274.9-163,275.9-162.8,276.3-163.4L276.3-163.4z"
						/>
				</g>
			</g>
		</g>
		<g>
			<g>
				<path fill="#78D1C4" d="M210-268.9c-6.1-2.6-10.7-10.3-13.6-16c-0.8-1.5-1.4-3.1-1.9-4.7c-0.5-1.7-1.2-8.3,3.1-7.1
					c3.4,1,5.9,5.9,7.7,8.7c0.4,0.6,1-0.2,1-0.7c-0.2-3.1,0.8-7.8,4.7-8c4-0.3,3.3,6.7,3.1,8.9c-0.8,6.5-5,11.8-5.3,18.5
					c0,0.8,1,0.3,1-0.3c0.3-6.6,4-12.1,5.3-18.5c0.6-3,0.6-7.7-2.4-9.4c-5.1-3-7.6,6.2-7.5,9.3c0.3-0.2,0.7-0.4,1-0.7
					c-1.7-2.7-5.1-9.1-8.9-9.2c-3.2-0.1-4.4,3.6-4.3,6.3c0.1,4.8,3.5,9.8,6.1,13.6c2.6,3.8,6,8.4,10.3,10.2
					C209.9-267.6,210.6-268.6,210-268.9L210-268.9z"/>
			</g>
		</g>
		<g>
			<g>
				<g>
					<g>
						<path fill="#78D1C4" d="M158.5-158.1c1.5,0,4.5,0.2,5.6-1.1c1.1-1.3,0.4-4.5,0.3-6.1c-0.1-4.1-6.7-2.2-9.5-2.2
							c-1.5,0-3.7-0.2-5,0.9c-1.3,1-0.4,4-0.3,5.3c0.2,2.6,0.1,3.2,2.9,3.4C154.5-157.8,156.5-158,158.5-158.1c0.5,0,1-1.1,0.4-1.1
							c-2.5,0.1-5.2,0.6-7.6,0c-0.8-0.2-0.6-3.5-0.7-4.2c-0.2-1.6-0.2-2.5,1.6-2.7c0.8-0.1,1.6-0.1,2.4-0.1c2.5,0,5-0.4,7.5-0.2
							c1.9,0.1,1.3,4,1.3,5.3c0,2.4-2.7,2-4.6,2C158.3-159.2,157.8-158.1,158.5-158.1z"/>
					</g>
				</g>
				<g>
					<g>
						<path fill="#78D1C4" d="M145.4-155.7c-0.2-3.9-0.9-7.7-0.7-11.6c0.3-4.6,9.7-3.4,12.6-3.3c2.8,0.1,7.4-1,9.8,0.4
							c2.9,1.7,2.3,10.4,2.4,13.2c0,0.7,1.1,0,1-0.5c-0.2-3.7,0.6-11.7-3.2-13.9c-1.3-0.7-3.3-0.3-4.6-0.2c-2.8,0.2-5.7-0.1-8.5-0.1
							c-3.3-0.1-7.5-0.1-9.8,2.7c-2.5,3-0.2,10.6,0,14C144.4-154.4,145.4-155.1,145.4-155.7L145.4-155.7z"/>
					</g>
				</g>
				<g>
					<g>
						<g>
							<path fill="#78D1C4" d="M155.9-147c19.2-1,26.8,30.4,5.3,32.2c-8.1,0.7-17.2-4.1-18.8-12.4c-1.9-9.4,4.3-18.4,13.6-19.9
								c0.6-0.1,0.9-1.2,0.1-1.1c-9.2,1.4-14.6,8.9-15,17.9c-0.5,10.9,9.9,16.7,19.7,16.5c9.4-0.2,15-8.5,14.5-17.3
								c-0.6-10-9.3-17.7-19.2-17.2C155.7-148,155.2-146.9,155.9-147z"/>
						</g>
					</g>
					<g>
						<g>
							<path fill="#78D1C4" d="M156.8-140.4c11.4-0.5,16.2,18.1,3.3,19.2c-4.7,0.4-10.1-2.4-11.2-7.2c-1.3-5.6,2.4-11,8-12
								c0.6-0.1,0.9-1.2,0.1-1.1c-5.7,0.9-9,5.5-9.3,11.1c-0.4,6.8,5.9,10.4,12,10.3c5.5,0,9.7-5.1,9.3-10.5
								c-0.6-6.3-5.4-11.2-11.8-10.9C156.6-141.5,156.1-140.4,156.8-140.4z"/>
						</g>
					</g>
				</g>
				<g>
					<g>
						<g>
							<path fill="#78D1C4" d="M166.2-108.2c7.4,0,19.9,0.8,25.5-5.1c1.8-1.8,0.6-5.3,0.5-7.5c-0.3-5.2-0.3-10.4-0.2-15.5
								c0.1-5.9,1.9-17.4-5.2-19.8c-7.8-2.6-17.4-0.5-25.4,0c-7.1,0.4-14.2,0.2-21.3,0.6c-5.4,0.3-14.3,0.1-16,6.6
								c-2.1,8,0.4,18,1,26.1c0.2,3.5-0.8,8.7,0.8,11.8c1.5,2.8,6.5,3.2,9.2,3.5C145.1-106.2,156-107.8,166.2-108.2
								c0.5,0,1-1.1,0.4-1.1c-5.2,0.2-10.5,0.3-15.7,0.7c-5.2,0.4-10.4,0.5-15.5,0c-2.6-0.3-5.4-0.8-7.7-2.2c-2-1.3-1.3-4.9-1.3-7
								c-0.3-9-1.8-17.9-1.7-26.9c0-2.8,0.2-6.1,2.9-7.5c2.2-1.1,5-1.4,7.4-1.7c4.6-0.6,9.3-0.6,13.9-0.6c5.9,0,11.7-0.3,17.6-0.8
								c6.5-0.5,21.6-3.4,23.8,4.9c2.3,8.4,0.7,18.7,0.9,27.5c0,2.1,0.1,4.2,0.4,6.3c0.4,4.1-4,5.1-7,5.8c-5.8,1.4-12,1.5-17.9,1.5
								C166-109.3,165.5-108.2,166.2-108.2z"/>
						</g>
					</g>
					<g>
						<g>
							<g>
								<g>
									<path fill="#78D1C4" d="M179.6-148.6c-2.1,0.3-3.8,1.7-3.5,4c0.3,2,2.3,3.4,4.3,2.9c2-0.5,2.9-3,2.7-4.9
										c-0.2-1.8-2.5-3.4-4-1.8c-0.5,0.6,0.2,1.1,0.7,0.6c0.3-0.3,0.1-0.1,0.5-0.1c0.3,0,0.6,0.1,0.9,0.3c0.5,0.3,0.8,1,0.9,1.6
										c0.2,1.3-0.4,3-1.8,3.3c-1.3,0.4-2.5-0.7-3-1.8c-0.7-1.6,0.3-2.8,1.9-3C179.8-147.6,180.3-148.7,179.6-148.6z"/>
								</g>
							</g>
							<g>
								<g>
									<path fill="#78D1C4" d="M180-139c-1.2,0.2-2.2,1-2,2.3c0.1,1.1,1.2,1.8,2.2,1.5c1.1-0.3,1.7-1.7,1.6-2.7
										c-0.1-1.2-1.5-1.7-2.3-0.8c-0.5,0.6,0.1,1.1,0.7,0.6c0,0,0.1-0.1,0.1-0.1c-0.1,0.1-0.3,0.2-0.4,0.3
										c1.1-0.2,1.2,1.8,0.3,1.8c-0.9,0.1-1.8-1.5-0.5-1.7c0.3,0,0.6-0.2,0.7-0.6C180.4-138.7,180.3-139.1,180-139z"/>
								</g>
							</g>
						</g>
						<g>
							<g>
								<path fill="#78D1C4" d="M176.2-157.9c-0.7-1.9,1.2-2.6,2.8-2.6c2,0,3.4,1.4,3,3.4c-0.1,0.7,0.9,0.3,1-0.3
									c1.2-6.2-9.9-5.1-7.8,0.2C175.5-156.6,176.4-157.4,176.2-157.9L176.2-157.9z"/>
							</g>
						</g>
					</g>
				</g>
				<g>
					<g>
						<g>
							<path fill="#78D1C4" d="M124.3-136.1c-4.9-0.6-4.4,10.2,0.3,9.6c0.5-0.1,1-1.2,0.4-1.1c-3.5,0.5-4.1-7.7-1-7.4
								C124.5-135,125-136.1,124.3-136.1L124.3-136.1z"/>
						</g>
					</g>
					<g>
						<g>
							<path fill="#78D1C4" d="M191.9-137.8c3.3-0.7,3.6,7.6,0.3,7.4c-0.5,0-1.1,1.1-0.4,1.1c4.9,0.2,4.9-10.6,0.2-9.6
								C191.4-138.8,191.1-137.7,191.9-137.8L191.9-137.8z"/>
						</g>
					</g>
				</g>
				<g>
					<g>
						<g>
							<path fill="#78D1C4" d="M125.4-118.2c6.7-0.6,13.5-0.7,20.2-0.8c0.5,0,1.1-1.1,0.4-1.1c-6.8,0.1-13.5,0.3-20.2,0.8
								C125.2-119.3,124.7-118.2,125.4-118.2L125.4-118.2z"/>
						</g>
					</g>
					<g>
						<g>
							<path fill="#78D1C4" d="M172.6-120.2c6.3-0.5,12.7-0.7,19-0.8c0.5,0,1.1-1.1,0.4-1.1c-6.4,0.1-12.7,0.2-19,0.8
								C172.5-121.2,172-120.1,172.6-120.2L172.6-120.2z"/>
						</g>
					</g>
				</g>
			</g>
			<g>
				<g>
					<path fill="#78D1C4" d="M194.8-131.7c2.3-3.5,5.6-8.3,5.3-12.8c-0.4-5.4-5.8-16.3,5.2-13.6c10.5,2.6,20.6,12,32.1,7.2
						c19.7-8.3,15.3-41.1-2.6-48.8c-10.7-4.6-23.9,0.4-34,4.2c-7.1,2.7-14.1,5.3-21.6,6.2c-8.1,1-16.5,0.2-24.6,0.1
						c-20.4-0.4-41.6,5.9-46.4,28.2c-2.7,12.3,0.7,26.6,13,32c0.5,0.2,1.2-0.8,0.6-1.1c-11-4.8-14.2-16.4-13.2-27.5
						c1.3-13.8,10.2-23.6,23.1-27.9c13.3-4.4,27.7-2,41.5-2.3c14.3-0.3,26.5-7.1,40.1-10.7c6.4-1.7,13.2-2.3,19.6-0.5
						c7.7,2.1,12.4,9.5,14.8,16.7c2.2,6.4,1.9,13.3-0.3,19.5c-3.6,10.3-13.2,13.4-23.1,11c-5.6-1.3-10.5-4.3-15.8-6.5
						c-3.1-1.3-7.6-2.6-10.4,0c-1.9,1.8-1,5.3-0.6,7.4c0.4,1.9,1.1,3.7,1.5,5.6c1,4.6-2.6,9.6-5,13.3
						C193.5-131.3,194.4-131.1,194.8-131.7L194.8-131.7z"/>
				</g>
			</g>
			<g>
				<g>
					<path fill="#78D1C4" d="M121.2-134c-10.8-5-10.2-20.7-7.3-30.5c4.5-15.2,20.2-19,34.2-19.3c12.3-0.2,24.5,1.3,36.7-1.1
						c13.1-2.5,24.7-10.7,38.2-11c13.4-0.3,21.1,10.5,22.2,22.8c0.5,5.5-0.8,11.7-5,15.6c-5.6,5.1-14.5,1.9-20.5-0.5
						c-7.6-3.1-17.4-9.6-24.3-2c-5.9,6.5,2.8,16-1.3,23.2c-0.4,0.7,0.5,0.9,0.9,0.3c1.9-3.4,1.6-6.6,0.8-10.3
						c-0.6-2.6-1.3-5.1-1.4-7.8c-0.2-8.4,8.8-8.4,14.4-6.5c8.8,3,21.8,12.1,30.9,5.2c6.4-4.8,7.3-13.5,6-20.9
						c-1.9-11.4-9.4-18.8-20.9-19.9c-13.7-1.4-27.1,8-40.1,11c-15.2,3.4-31-0.3-46.4,1.7c-10.7,1.4-19.8,7-24.5,16.9
						c-3.8,8-4.1,20.5-0.2,28.5c1.4,2.8,4.1,4.7,6.8,5.9C121.1-132.7,121.7-133.7,121.2-134L121.2-134z"/>
				</g>
			</g>
		</g>
		<g>
			<g>
				<g>
					<path fill="#405B7C" d="M19.8-31.8c0.5,9,2.4,21.2,7.5,20.1c3.3-0.7,10.4-1,13.3-1.3c4.4-0.4,16.4-0.3,19.7-2.9
						C64-19,61-34.1,60.5-39L60-44.1c-0.5-4.9-0.5-20.3-4.7-22.6c-3.7-1.9-15.4,0.6-19.9,1.1c-3,0.3-10,1.4-13.3,1.3
						c-5.2-0.1-4.7,12.3-3.4,21.2L19.8-31.8z"/>
					<g>
						<path fill="#78D1C4" d="M19.4-31.6c0.3,4.3,0.4,21,7.7,20.3c9.2-0.8,18.8-1.1,28-2.5c7.7-1.1,7.7-6.4,7.3-13.2
							c-0.5-7.2-1.8-14.3-2.2-21.6c-0.3-5,0.4-17.5-6.1-19.1c-3.8-0.9-8.4,0.1-12.2,0.6c-5.4,0.8-10.7,1.5-16.2,2
							c-2.1,0.2-4.9-0.4-6.3,1.7c-2.3,3.5-2,8.1-1.9,12.1C17.7-44.7,18.8-38.1,19.4-31.6c0.1,0.5,0.9,0,0.8-0.4
							c-0.4-3.8-0.7-7.6-1.1-11.4c-0.4-4.4-1-8.8-0.8-13.2c0.1-2.4,0.4-6.9,3.6-7.3c2-0.2,4.1-0.2,6.1-0.5c7.5-0.8,15-2.4,22.5-2.6
							c4.7-0.1,6.3,2,7.3,6.3C58.8-57,59-53,59.3-49.2c0.3,4.9,0.7,9.7,1.4,14.6c0.5,3.8,1,7.6,1.1,11.4c0,2.1-0.1,4.2-1,6.1
							c-1,2.2-5.9,2.5-7.8,2.7c-7.3,0.9-14.8,0.9-22.1,1.6c-1.5,0.1-3.3,0.7-4.7,0.5c-2.2-0.4-3.3-4.3-3.9-6
							c-1.4-4.4-1.7-9.2-2-13.8C20.2-32.6,19.4-32,19.4-31.6z"/>
					</g>
				</g>
			</g>
			<g>
				<path fill="#78D1C4" d="M24.4-53.1L24.4-53.1c0,0.1,0,0.2,0.1,0.3l0.2,1.9c0.1,0.6,0.2,1.2,0.3,1.5l0.3,0.1
					c0.1,0,0.2-0.1,0.3-0.1c0.1-0.1,0.1-0.1,0.1-0.2l-0.3-2l-0.1-1.1c0.3-0.1,0.5-0.2,0.7-0.4c0.1-0.1,0.2-0.1,0.2-0.2
					c0.1-0.1,0.1-0.2,0.2-0.2c0-0.1,0.1-0.2,0.1-0.3c0-0.1,0-0.2,0.1-0.3c0-0.1,0-0.4-0.1-0.9c0-0.4-0.2-0.7-0.4-1
					c-0.2-0.3-0.6-0.4-1-0.4l-0.5,0.1c-0.2,0-0.3,0.2-0.3,0.4c0.1,0.2,0.2,0.5,0.2,1l0.1,1C24.5-53.5,24.5-53.2,24.4-53.1z
					 M24.8-55.8c0.1,0,0.1,0,0.1,0c0.2,0,0.4,0,0.5,0.1c0.1,0.1,0.2,0.3,0.2,0.7c0.1,1.1,0,1.8-0.5,1.9l0,0l-0.3-2L24.8-55.8z"/>
				<path fill="#78D1C4" d="M30.2-54.5c-0.3-1-0.5-1.8-0.5-2.4c0-0.1-0.1-0.2-0.1-0.2c-0.1,0-0.2,0-0.3,0l-0.4,0
					c-0.1,0.2-0.1,0.5-0.1,1c0,0.2,0,0.4,0,0.4c-0.1,1.8-0.3,3.6-0.6,5.5l0,0.1c0,0.1,0.1,0.1,0.1,0.2c0.1,0,0.2,0.1,0.3,0
					c0.2,0,0.3-0.2,0.4-0.4c0-0.1,0-0.3,0-0.6c0-0.3,0-0.5,0.1-0.8l1.2,0c0.2,0.6,0.3,1,0.3,1.3c0,0.1,0.1,0.2,0.2,0.3
					c0.1,0,0.2,0,0.4,0c0.1-0.1,0.2-0.2,0.2-0.3l0,0c0-0.1-0.1-0.3-0.2-0.6c-0.1-0.3-0.2-0.5-0.2-0.6l-0.2-0.6
					C30.7-52.7,30.5-53.5,30.2-54.5z M29-52c0-0.7,0.1-2,0.3-3.8c0,0.2,0.1,0.6,0.3,1.1c0.1,0.5,0.2,0.9,0.3,1.3
					c0.1,0.4,0.1,0.7,0.2,0.9c0,0.3,0.1,0.4,0.1,0.5C29.5-51.9,29.2-52,29-52z"/>
				<path fill="#78D1C4" d="M32.4-50.5c0.1,0.2,0.3,0.3,0.6,0.3l0,0c0.3,0,0.5-0.1,0.7-0.3c0.2-0.1,0.3-0.3,0.4-0.5
					c0.2-0.4,0.3-0.8,0.2-1.3c-0.1-0.6-0.2-1-0.5-1.4c-0.1-0.2-0.3-0.4-0.4-0.5c-0.1-0.2-0.3-0.3-0.4-0.5c-0.1-0.2-0.2-0.3-0.3-0.5
					c-0.1-0.2-0.2-0.4-0.2-0.5c0-0.1,0-0.3,0-0.4c0-0.5,0.2-0.8,0.4-0.8c0.1,0,0.2,0,0.3,0c0.2,0,0.3-0.1,0.3-0.3
					c0-0.1-0.1-0.2-0.2-0.2c-0.1-0.1-0.3-0.1-0.4-0.1c-0.4,0-0.7,0.3-0.8,0.8c-0.1,0.3-0.1,0.5-0.1,0.9c0.1,0.5,0.3,1,0.7,1.5
					c0.2,0.2,0.3,0.4,0.5,0.6c0.2,0.2,0.3,0.4,0.4,0.7c0.1,0.2,0.2,0.5,0.2,0.8c0,0.3,0,0.6-0.1,0.9c0,0.2-0.1,0.3-0.2,0.5
					c-0.1,0.1-0.2,0.2-0.4,0.2l-0.5,0L32.4-50.5z"/>
				<path fill="#78D1C4" d="M35.7-50.9c0.1,0.2,0.3,0.3,0.6,0.3l0,0c0.3,0,0.5-0.1,0.7-0.3s0.3-0.3,0.4-0.5c0.2-0.4,0.3-0.8,0.2-1.3
					c-0.1-0.6-0.2-1-0.5-1.4c-0.1-0.2-0.3-0.3-0.4-0.5c-0.1-0.2-0.3-0.3-0.4-0.5c-0.1-0.2-0.2-0.3-0.3-0.5c-0.1-0.2-0.2-0.4-0.2-0.5
					c0-0.1,0-0.3,0-0.4c0-0.5,0.2-0.8,0.4-0.8c0.1,0,0.2,0,0.3,0c0.2,0,0.3-0.1,0.3-0.3c0-0.1-0.1-0.2-0.2-0.2
					c-0.1-0.1-0.3-0.1-0.4-0.1c-0.4,0-0.7,0.3-0.8,0.8c-0.1,0.3-0.1,0.5-0.1,0.9c0.1,0.5,0.3,1,0.7,1.5c0.2,0.2,0.3,0.4,0.5,0.6
					c0.2,0.2,0.3,0.4,0.4,0.7c0.1,0.2,0.2,0.5,0.2,0.8c0,0.3,0,0.6-0.1,0.9c0,0.2-0.1,0.3-0.2,0.5c-0.1,0.1-0.2,0.2-0.4,0.2l-0.5,0
					L35.7-50.9z"/>
				<path fill="#78D1C4" d="M38.6-54.7L38.6-54.7c0,0.1,0,0.2,0.1,0.3l0.2,1.9c0.1,0.6,0.2,1.2,0.3,1.5l0.3,0.1
					c0.1,0,0.2-0.1,0.3-0.1c0.1-0.1,0.1-0.1,0.1-0.2l-0.3-2l-0.1-1.1c0.3-0.1,0.5-0.2,0.7-0.4c0.1-0.1,0.2-0.1,0.2-0.2
					c0.1-0.1,0.1-0.2,0.2-0.2c0-0.1,0.1-0.2,0.1-0.3c0-0.1,0-0.2,0.1-0.3c0-0.1,0-0.4-0.1-0.9c0-0.4-0.2-0.7-0.4-1
					c-0.2-0.3-0.6-0.4-1-0.4L38.6-58c-0.2,0-0.3,0.2-0.3,0.4c0.1,0.2,0.2,0.5,0.2,1l0.1,1C38.7-55.1,38.7-54.8,38.6-54.7z M39-57.4
					c0.1,0,0.1,0,0.1,0c0.2,0,0.4,0,0.5,0.1c0.1,0.1,0.2,0.3,0.2,0.7c0.1,1.1,0,1.8-0.5,1.9l0,0l-0.3-2L39-57.4z"/>
				<path fill="#78D1C4" d="M42.3-53.1c0.1,0.4,0.3,0.8,0.6,1.2c0.3,0.4,0.7,0.6,1.1,0.5c1.1-0.1,1.5-1.2,1.3-3.2l-0.2-1.2l0-0.1
					c-0.1-0.7-0.2-1.3-0.5-1.7c-0.4-0.8-1.1-1.1-2.1-1c-0.1,0-0.2,0.1-0.3,0.2c-0.1,0.1-0.2,0.4-0.3,0.8c-0.1,0.5-0.1,1.3,0,2.4
					l0,0.2c0,0,0,0,0,0l0,0.4C42.1-54.2,42.2-53.7,42.3-53.1z M42.5-56.8c0-0.3,0-0.6,0-0.9c0.1-0.3,0.2-0.4,0.5-0.5
					c0.3,0,0.5,0,0.7,0.2c0.2,0.2,0.3,0.4,0.4,0.7l0,0.2c0,0.3,0.1,0.7,0.2,1.2c0.1,0.5,0.2,0.9,0.2,1.2c0,0.3,0,0.6,0,1
					c0,0.2,0,0.4,0,0.6c0,0.2-0.1,0.4-0.1,0.6c0,0.2-0.1,0.3-0.2,0.4c-0.1,0.1-0.2,0.2-0.4,0.2c-0.2-0.1-0.4-0.3-0.7-0.7
					c-0.3-0.7-0.5-1.6-0.6-2.6l-0.1-1L42.5-56.8z"/>
				<path fill="#78D1C4" d="M47.3-55.5c0.1,0.1,0.3,0.8,0.8,2c0.1,0.4,0.3,0.8,0.5,1.1c0.2,0.3,0.4,0.5,0.5,0.5c0.1,0,0.1,0,0.2-0.1
					c0-0.1,0.1-0.1,0.1-0.2c0-0.1-0.1-0.2-0.2-0.3c-0.3-0.4-0.7-1.2-1.1-2.3c-0.2-0.5-0.3-0.8-0.3-1c0,0,0.1-0.1,0.2-0.3
					c0.1-0.2,0.2-0.4,0.2-0.6c0.1-0.2,0.1-0.4,0.1-0.6l-0.1-0.7c0-0.4-0.2-0.6-0.5-0.8C47.3-59,46.9-59,46.5-59
					c-0.3,0-0.4,0.2-0.3,0.5c0.1,0.6,0.2,1.6,0.4,2.9c0.2,1.3,0.3,2.1,0.4,2.5c0,0.4,0.1,0.7,0.1,1.1l0.2,0.1l0.3,0l0.1-0.3
					c-0.2-0.5-0.4-1.2-0.5-2.2l-0.1-1.1L47.3-55.5z M47.4-58.3c0.1,0.1,0.1,0.2,0.1,0.3c0,0.1,0,0.2,0.1,0.4c0,0.2,0,0.5-0.1,0.8
					c-0.1,0.4-0.2,0.6-0.4,0.7c0-0.2-0.1-0.6-0.2-1.2c-0.1-0.5-0.1-1-0.2-1.2l0-0.2C47.1-58.7,47.3-58.6,47.4-58.3z"/>
				<path fill="#78D1C4" d="M51.4-52.5c0.1,0,0.2-0.1,0.3-0.1c0.1-0.1,0.1-0.2,0.1-0.2c-0.1-0.7-0.3-1.7-0.5-3
					c-0.3-1.3-0.5-2.3-0.5-3l0-0.1l0.6,0c0.1,0,0.2,0,0.3-0.1c0.1-0.1,0.1-0.1,0.1-0.2c0-0.2-0.2-0.2-0.4-0.2l-0.2,0l-1.7,0.1
					c-0.1,0-0.2,0-0.2,0.1C49.1-59.1,49-59.1,49-59c0,0.2,0.4,0.3,1,0.2c0,0,0,0,0,0c0,0.3,0.2,1.2,0.5,2.7s0.4,2.3,0.5,2.4
					c0,0.2,0,0.4,0,0.4l0.1,0.8L51.4-52.5z"/>
			</g>
			<g>
				<g>
					<path fill="#405B7C" d="M34.3-43.5c-5.5,3-7.4,10.2-3.9,15.6c4.2,6.6,15,6,19.2-0.5c7.2-11.1-5-21-15.7-14.8"/>
					<g>
						<path fill="#78D1C4" d="M34.2-43.9c-5.8,3.5-7.6,10.4-4.2,16.3c3.3,5.8,11.4,5.8,16.4,2.8c5.2-3.1,7.2-10.4,4.3-15.6
							c-3.4-6.1-11.5-6.1-17-3.2c-0.4,0.2-0.4,1.1,0.1,0.8c4.8-2.5,10.3-2.5,14.5,1.2c4.9,4.3,2.9,11.8-1.5,15.6
							c-4.1,3.4-10.5,3.1-14.5-0.1c-5.7-4.5-3.8-13.5,1.9-16.9C34.7-43.4,34.8-44.2,34.2-43.9L34.2-43.9z"/>
					</g>
				</g>
				<g>
					<path fill="#405B7C" d="M30.5-39c-0.4,3.4,1.8,4.3,3.4,6.3c1.6,1.8,3.9,6.2,4.9,1.7c0.2-1.6-2-4.2-2-5.7
						c-0.2-2.5,1.7-5.1,1.4-7.9"/>
					<g>
						<path fill="#78D1C4" d="M30-38.9c-0.2,2.8,1.2,4.1,3,6.1c0.7,0.8,3,4.9,4.5,4.1c1.6-0.8,1.6-2.8,1.1-4.3
							c-0.8-2.3-2-3.5-1.4-6.1c0.4-2,1.2-3.6,1.2-5.7c0-0.6-0.8-0.2-0.8,0.2c0,2.5-1.1,4.7-1.4,7.1c-0.2,1.6,0.8,3.1,1.4,4.4
							c0.6,1,0.3,2.1-0.9,3.1c-0.4-0.4-0.8-0.8-1.1-1.2c-0.5-0.6-1-1.3-1.5-2c-1.7-2-3.5-3.1-3.3-6C30.9-39.8,30.1-39.4,30-38.9
							L30-38.9z"/>
					</g>
				</g>
				<g>
					<path fill="#405B7C" d="M48.8-39.7c-1.9,0.1-6.8,4.5-5.9,7.6c0.9,3.1,2.8-1.5,3.9-1.7c1.7-0.3,3.6,1.9,5.2-0.9"/>
					<g>
						<path fill="#78D1C4" d="M49-40.1c-3.2,0.4-8.5,6-6,9.3c1,1.3,2.7-1.4,3.2-2c0.9-1.1,2.5,0,3.7,0c1.2,0.1,2-0.9,2.5-1.8
							c0.4-0.6-0.4-0.7-0.7-0.2c-1.7,2.5-3-0.1-4.9,0.6c-0.9,0.3-1.4,1.2-2,1.9c-1,1.2-1.6,0.3-1.6-1c0-1.1,0.7-2.1,1.3-2.9
							c0.9-1.2,2.6-2.9,4.2-3.1C49.1-39.3,49.5-40.2,49-40.1L49-40.1z"/>
					</g>
				</g>
			</g>
		</g>
		<g>
			<g>
				<g>
					<path fill="#405B7C" d="M210.5-244.1c1,7.4,0.8,17.2,6.7,22.2c4.8,4.2,12.7,5.7,18,2.3c6.9-3.8,10-11.1,9-19
						c-0.8-9.1-7.1-7.5-14.4-8.5c-6.8-1-13.2-2.2-20-3.2l-2.6-0.4c-6.8-1-13.3-1.6-20.1-2.6c-7.4-1.1-12.9-4.4-16.3,4.1
						c-3.2,7.3-2.2,15.2,3.3,20.8c4.1,4.8,12.1,5.6,18,2.9c7.1-3.2,9.4-12.8,12.7-19.4C205-244.9,209.6-250.6,210.5-244.1z"/>
					<g>
						<path fill="#78D1C4" d="M210-243.8c1.2,9.5,1.1,19.6,10.4,24.8c8.3,4.6,17.5,0.3,22.2-7.2c3.4-5.5,4.6-17.3-2.7-20.2
							c-4.4-1.7-10.5-1.3-15.2-2.1c-5.7-0.9-11.5-1.9-17.2-2.7c-7.5-1.1-15.1-1.6-22.5-3c-2.9-0.6-6.9-2-9.8-0.6
							c-7.4,3.6-7.6,15.4-4.8,21.9c3.9,9.2,14.7,11.7,23.1,7.3c3.6-1.9,5.8-5.9,7.6-9.4c1.2-2.4,2.2-5,3.3-7.5
							C205.4-244.8,208.9-249.1,210-243.8c0.1,0.7,1.1,0,1-0.5c-0.8-3.8-3.1-4.3-5.7-1.5c-1.5,1.6-2.1,3.8-2.9,5.7
							c-2.2,5.1-4.3,10.5-9,13.6c-11.4,7.6-23.7-3.8-23.6-15.4c0-3,1.1-5.8,2.3-8.5c1.7-3.9,5.3-4.1,8.9-3.5
							c3.9,0.7,7.7,1.4,11.7,1.9c10,1.3,19.9,2.6,29.8,4.2c4,0.7,8,1.3,12.1,1.6c4.7,0.3,8.1,1.3,9.2,6.4
							c2.9,12.9-8.5,24.8-21.3,20.2c-10.3-3.7-10.2-15.8-11.3-24.9C210.9-245,209.9-244.3,210-243.8z"/>
					</g>
				</g>
			</g>
			<g>
				<g>
					<path fill="#405B7C" d="M220.5-224c4.6,5.2,13.4,3.2,17.3-2.8c3-4.5,7.2-13.8,0.4-15.6c-3.1-0.8-21.4-3.3-22.4-2.8
						c0,0-2.2,0.9-1.7,5.6C214.2-239.8,216.3-228.7,220.5-224z"/>
					<g>
						<path fill="#78D1C4" d="M220.1-223.6c7.3,7.3,16.5,0.6,20.2-6.8c1.6-3.1,2.9-7,1.4-10.4c-1.2-2.9-6.1-2.9-8.7-3.3
							c-4.6-0.7-9.2-1.3-13.7-1.8c-1.9-0.2-3.4-0.6-4.7,0.9c-1.7,2-1.1,5-0.5,7.3C215.2-232.7,216.8-227.6,220.1-223.6
							c0.3,0.4,1.2-0.4,0.9-0.9c-3.5-4.4-5.1-10.2-6.3-15.6c-0.8-3.9,0.6-5,3.5-4.8c2.8,0.2,5.6,0.6,8.4,1c5,0.7,15,0.2,14.7,7.2
							c-0.4,9.4-12,20.4-20.4,12.1C220.5-224.9,219.6-224,220.1-223.6z"/>
					</g>
				</g>
				<g>
					<path fill="#405B7C" d="M189.8-228.4c-5.9,3.7-13.7-0.6-15.8-7.6c-1.6-5.2-3-15.3,4-15.1c3.2,0.1,21.5,2.8,22.3,3.6
						c0,0,1.9,1.5,0,5.8C200.3-241.8,195.1-231.8,189.8-228.4z"/>
					<g>
						<path fill="#78D1C4" d="M189.7-228.9c-9.6,5.1-15.5-5.3-16.4-13.3c-0.5-4.1,0.8-8.8,6-8.3c2.4,0.2,4.8,0.6,7.3,0.9
							c3.1,0.4,6.1,0.9,9.2,1.5c1.1,0.2,3.3,0.2,4.2,1c4.3,4-7.9,16.5-10.3,18.2c-0.6,0.4-0.2,1.3,0.4,0.8c3.8-2.7,6.5-6.6,9-10.6
							c1.4-2.2,3.4-5.4,2.4-8.1c-0.8-2.2-3-2-5.1-2.4c-4.5-0.8-9-1.5-13.5-2.1c-2.9-0.4-5.9-1.1-8.5,0.8c-2.5,1.9-2.3,6.1-2.1,8.8
							c0.6,8.8,8,18.9,17.6,13.7C190.4-228.2,190.4-229.3,189.7-228.9z"/>
					</g>
				</g>
			</g>
		</g>
		<g>
			<g>
				<path fill="#405B7C" d="M284.7-224.2c0.4-0.1,0.8-0.1,1.2-0.1c2.5-0.2,5.9-0.3,6.9-2.3c1.2-2,1.6-8.3,1.6-10.4
					c0.2-9.8-0.6-15.7-1.9-29c-0.7-7-1.9-20.3-5.4-26.3c-2.6-4.6-9.8-2.3-14.5-1.5l-1.1,0.2c-4.7,0.8-12.3,1-13.2,6.2
					c-1.3,6.7,1.9,19.8,3.6,26.6c3.2,13,4.4,18.8,7.8,28c0.7,2.1,3.1,7.8,4.9,9.3c1.8,1.9,6.1,0.1,8.4-0.3L284.7-224.2z"/>
				<g>
					<path fill="#78D1C4" d="M284.6-223.6c2.2-0.3,6.5,0.1,8-2c1.8-2.5,2-5.8,2.2-8.8c0.7-8.8-0.4-17.9-1.3-26.7
						c-0.9-9.6-1.4-19.5-4.6-28.7c-2.9-8.3-10.6-5.6-17.4-4.4c-6.4,1.1-13.3,1.3-14,9c-0.8,9.3,2.5,19.2,4.7,28.1
						c2.2,8.9,4.3,17.7,7.6,26.2c0.8,2.1,2.7,7.9,5.4,8.4c3.2,0.6,6.3-0.7,9.4-1.2c0.6-0.1,0.9-1.2,0.1-1.1
						c-2.8,0.5-7.1,2.4-9.7,0.7c-2.3-1.5-3.7-6.1-4.6-8.5c-2.6-6.6-4.3-13.5-6-20.4c-1.8-7.4-3.7-14.7-5-22.2
						c-0.6-3.8-1.1-7.6-0.7-11.4c0.5-5.6,7.7-5.8,11.7-6.4c3.2-0.4,6.2-1.3,9.4-1.6c5.5-0.6,7.5,3.2,8.9,7.8c2,6.7,2.6,14,3.3,20.9
						c0.8,7.9,1.7,15.7,1.9,23.6c0.1,3.1,0.1,6.2-0.2,9.3c-0.2,2.5-0.3,6.3-3.1,7.4c-1.7,0.7-3.8,0.5-5.6,0.8
						C284.4-224.7,283.9-223.5,284.6-223.6z"/>
				</g>
			</g>
			<g>
				<path fill="#405B7C" d="M259.2-289.2c-3.5-7.6,7.3-7,12.1-7.9c3.2-0.5,7.8-2.2,11.1-1.7c2.6,0.5,2.9,1.9,3.5,4.3"/>
				<g>
					<path fill="#78D1C4" d="M259.7-289.6c-2.5-6.5,6.7-6.3,10.7-6.8c5.1-0.6,13.2-5,15,2.2c0.2,0.7,1.2,0,1-0.5
						c-0.8-3.1-1.8-4.4-5.1-4.7c-4.6-0.3-9.6,1.8-14.2,2.3c-5.1,0.5-10.7,2.2-8.3,8.3C258.9-288.3,259.9-289.1,259.7-289.6
						L259.7-289.6z"/>
				</g>
			</g>
			<g>
				<path fill="#405B7C" d="M277.1-222.2c0.2,1.2,0.2,4.3,1.1,5.3c1.3,1.2,5.2-0.3,7.1-0.7c2.3-0.4,5.4,0,6.2-2.7
					c0.3-1.1-0.6-3.5-0.8-4.6"/>
				<g>
					<path fill="#78D1C4" d="M276.6-221.9c0.2,1.8-0.1,4.6,1.6,5.7c1.8,1.2,5.3-0.5,7.1-0.9c1.8-0.4,4.7,0,6-1.8
						c1.5-2.1,0.6-4,0.1-6.3c-0.2-0.7-1.2,0-1,0.5c0.4,1.8,2,4.8-0.9,5.9c-1.4,0.5-3.1,0.4-4.6,0.7c-1.5,0.3-5.2,2-6.4,0.3
						c-0.8-1.2-0.6-3.4-0.8-4.8C277.6-223.1,276.5-222.4,276.6-221.9L276.6-221.9z"/>
				</g>
			</g>
			<g>
				<path fill="#405B7C" d="M259.9-271.8c10.6-3.7,20.8-6.5,31-6.3"/>
				<g>
					<path fill="#78D1C4" d="M259.9-271.3c10-3.4,20.2-6.3,30.9-6.3c0.5,0,1.1-1.1,0.4-1.1c-10.8,0-21,2.8-31.2,6.3
						C259.4-272.2,259.2-271,259.9-271.3L259.9-271.3z"/>
				</g>
			</g>
			<g>
				<path fill="#405B7C" d="M267.1-240.4c9.2-3.4,18-6,27-5.6"/>
				<g>
					<path fill="#78D1C4" d="M267.1-239.8c8.7-3.2,17.5-5.8,26.8-5.6c0.5,0,1.1-1.1,0.4-1.1c-9.4-0.2-18.3,2.4-27.1,5.6
						C266.7-240.7,266.4-239.6,267.1-239.8L267.1-239.8z"/>
				</g>
			</g>
			<g>
				<path fill="#405B7C" d="M279.5-222.8c0.6,1.9,0.5,3.9,0.9,5.8"/>
				<g>
					<path fill="#78D1C4" d="M278.9-222.5c0.5,1.9,0.6,3.9,0.9,5.8c0.1,0.7,1.1,0,1-0.5c-0.3-1.9-0.3-3.9-0.9-5.8
						C279.8-223.7,278.8-223,278.9-222.5L278.9-222.5z"/>
				</g>
			</g>
			<g>
				<path fill="#405B7C" d="M281.9-223.1c0.3,1.8,0.5,3.7,0.8,5.6"/>
				<g>
					<path fill="#78D1C4" d="M281.3-222.8c0.3,1.9,0.5,3.7,0.8,5.6c0.1,0.7,1.1,0,1-0.5c-0.3-1.9-0.5-3.7-0.8-5.6
						C282.3-224,281.3-223.3,281.3-222.8L281.3-222.8z"/>
				</g>
			</g>
			<g>
				<path fill="#405B7C" d="M284.5-223.6c0.3,1.7,0.9,3.7,0.8,5.4"/>
				<g>
					<path fill="#78D1C4" d="M284-223.4c0.3,1.8,0.8,3.5,0.8,5.3c0,0.8,1,0.3,1-0.3c0.1-1.9-0.5-3.7-0.8-5.6
						C284.9-224.6,283.9-223.9,284-223.4L284-223.4z"/>
				</g>
			</g>
			<g>
				<path fill="#405B7C" d="M287.9-224.2c0.2,1.9,0.5,3.7,0.5,5.5"/>
				<g>
					<path fill="#78D1C4" d="M287.4-223.9c0.2,1.8,0.5,3.6,0.5,5.4c0,0.8,1.1,0.3,1-0.3c-0.1-1.9-0.3-3.7-0.5-5.6
						C288.4-225.2,287.3-224.5,287.4-223.9L287.4-223.9z"/>
				</g>
			</g>
			<g>
				<g>
					<path fill="#405B7C" d="M276-266.1c-7.5,1.1-2.9,15.8,4.8,10.2c4.9-3.6,1.3-11.8-4.5-10.4"/>
					<g>
						<path fill="#78D1C4" d="M276.1-266.5c-6.3,1.2-5.2,11.5,0.8,12.3c3.5,0.5,6.5-3.1,6.7-6.3c0.2-4-3.4-7-7.2-6.2
							c-0.4,0.1-0.7,1-0.1,0.9c3.3-0.7,5.9,1.7,6.4,4.9c0.5,3.4-3,6.7-6.3,5.7c-4.3-1.3-5.4-9.5-0.3-10.4
							C276.4-265.7,276.7-266.6,276.1-266.5L276.1-266.5z"/>
					</g>
				</g>
				<g>
					<g>
						<path fill="#78D1C4" d="M278.2-268c1.2-0.4,2.3-1.1,3.2-1.8c0,0,1.4-1.2,1.4-1.3c-0.2,1.4-0.4,2.7-0.5,4.2
							c0,0.2,0.1,0.3,0.3,0.3c0.7,0,3.2,0,3.6-0.6c-0.7,1-1.5,1.6-2.1,2.7c-0.1,0.2-0.1,0.5,0.1,0.5c1,0.2,4.4,0.1,3.1,1.1
							c-0.8,0.6-1.7,1.1-2.4,1.9c-0.1,0.2-0.2,0.5-0.1,0.6c1.1,0.9,2.5,1.5,3.7,2.4c1.9,1.5-1.2,0.3-1.9,0.2c-1.1-0.1-1.3,0-2.3,0.3
							c-0.3,0.1-0.6,0.4-0.4,0.7c0.7,1.4,1.6,2.5,2.6,3.7c1.2,0.6,1,0.6-0.5,0c-1.2-0.4-2.4-0.9-3.6-1.3c-0.3-0.1-0.7,0.3-0.7,0.5
							c0,1,1.2,4.3,0.2,3.5c-0.9-0.7-1.8-1.5-2.7-2.2c-0.2-0.2-0.6,0.1-0.7,0.3c-0.6,1.2-0.5,1-0.9,2.3c-0.8,2.5-1.4-2.1-1.6-3
							c-0.1-0.3-0.4-0.2-0.6-0.1c-4.2,2.8-2.9,1.3-2.5-2.1c0-0.2-0.1-0.3-0.3-0.3c-0.9,0-3.6,0.4-3.6,0.4c0.6-0.8,1.3-2,1.6-3
							c1-3-7,0.5-0.7-3.5c0.3-0.2,0.5-0.5,0.3-0.8c-0.6-0.8-1.3-1.6-2.1-2.3c0.4,0.4,2.2,0.1,2.5,0c0.3,0,0.6-0.3,0.6-0.7
							c-0.3-1-2.3-4.6-0.5-3.4c1.1,0.7,2.5,1.1,3.8,1.3c0.2,0,0.5-0.2,0.5-0.4c0.4-1.5,0.7-3,1.1-4.5c-0.7,0.1-0.8,0.3-0.3,0.7
							c0.3,0.5,0.6,0.9,0.9,1.4c0.4,0.7,0.8,1.3,1.3,2c0.3,0.4,1-0.2,0.8-0.6c-0.9-1.3-1.7-2.7-2.5-4c-0.2-0.3-0.7,0-0.8,0.3
							c-0.3,1.3-0.6,2.6-1,3.9c-0.2,1-3.9-1.5-5-1.9c-0.4-0.2-0.7,0.4-0.6,0.7c0.5,1.2,0.9,2.4,1.3,3.7c0.2,0.7-3,0.4-3.1,0.4
							c-0.3,0-0.8,0.5-0.5,0.8c0.3,0.2,3.3,2.6,2.4,3.2c-1.3,0.8-1.2,0.7-2.6,1.7c-0.2,0.1-0.4,0.6-0.1,0.7c1.3,0.5,4.2,0.4,3.1,2.4
							c-0.4,0.8-1,1.3-1.6,2c-0.2,0.2-0.3,0.7,0.1,0.7c2.7-0.3,4.1,1.3,3.3,4.1c-0.1,0.4,0.3,0.5,0.6,0.3c4.1-2.8,3.8-1.6,5.1,2.4
							c0.1,0.4,0.6,0.2,0.8-0.1c0.5-1.1,1.1-4.3,1.7-3.7c0.9,0.7,1.8,1.5,2.7,2.2c0.3,0.2,0.7-0.2,0.7-0.5c0-0.3-0.1-3.8,0.3-3.7
							c1.7,0.5,3.3,1.2,5,1.8c0.3,0.1,0.9-0.4,0.6-0.7c-1.2-1.5-2.4-2.9-3.4-4.5c0.1,0.1,4.2-0.2,4.9-0.3c0.3,0,0.6-0.5,0.4-0.8
							c-1-1.1-2.2-2-3.4-2.8c-1.5-1,1-1.8,1.9-2.6c0.2-0.1,0.4-0.6,0.1-0.7c-3.2-0.9-3.5-1-1.5-3.7c0.2-0.2,0.2-0.8-0.2-0.7
							c-1.3,0.5-2.6,0.4-4-0.2c0-1.4,0.4-2.8,0.6-4.1c0-0.4-0.4-0.4-0.6-0.2c-1.6,1.4-2.8,3.2-4.9,3.9
							C277.9-268.7,277.6-267.8,278.2-268z"/>
					</g>
				</g>
			</g>
		</g>
		<g>
			<g>
				<path fill="#405B7C" d="M98.7-99.2C121-99.5,115-62,118-45.8c1.8,9.4,2.8,24.5-6.9,29.5C99-10.5,93.4-22.7,90.7-33.1
					C89-39.9,87.7-47,85-53.6c-1.7-5.1-5.6-10.3-7-15.5C78-69,70.1-98.8,98.7-99.2z"/>
				<g>
					<path fill="#78D1C4" d="M98.5-98.6c17.8,0.2,17.3,24.5,17.8,37.2c0.3,6.9,1,13.6,1.9,20.4c0.7,5.3,0.7,10.7-0.7,15.8
						c-2,7.3-10.3,12.5-17.3,8.2c-9.1-5.4-9.9-21.2-12.5-30.2c-2.3-8.3-8.1-15.5-9.7-23.9c-0.9-4.7-0.9-9.7,0.3-14.4
						C80.9-94.8,89.5-98.4,98.5-98.6c0.5,0,1-1.1,0.4-1.1c-14.2,0.4-23,9.4-22.4,23.7c0.2,5,1.3,9.1,3.6,13.6
						c3.4,6.9,6.2,13.5,8.1,21c1.5,5.8,2.6,11.6,5,17.1c3.6,8.2,10.8,12.7,19.2,7.9c7.2-4.1,7.7-14.2,7.3-21.4
						c-0.4-8.4-2-16.6-2.3-25c-0.3-8.2-0.4-17-3.3-24.9c-2.6-7.1-7.3-11.9-15.2-12C98.3-99.7,97.8-98.6,98.5-98.6z"/>
				</g>
			</g>
			<g>
				<g>
					<path fill="#405B7C" d="M94.4-87.2C94.3-78.8,98-70.4,95.5-62c-1.8,5.2-8,12.3-7.4,18.1"/>
					<g>
						<path fill="#78D1C4" d="M93.9-87.1c0.2,8.9,4.2,18.5,0.2,27c-2.4,5.3-6.7,10.1-6.5,16.2c0,0.8,1.1,0.3,1-0.3
							c-0.2-6.7,5-12,7.4-18c3.1-7.8-0.9-17.3-1-25.3C94.9-88.1,93.9-87.6,93.9-87.1L93.9-87.1z"/>
					</g>
				</g>
				<g>
					<path fill="#405B7C" d="M94.4-87.2c3.6,7.6,3.8,15.3,9.6,21.9c3.9,4,14,11.3,13.7,17.2"/>
					<g>
						<path fill="#78D1C4" d="M93.9-86.8c3.3,7.5,4.4,15.5,9.7,21.9c4.4,5.3,13.3,9.3,13.6,17c0,0.7,1.1,0,1-0.5
							c-0.2-6.1-6.6-10.8-10.7-14.5c-7.6-6.8-8.7-15.8-12.7-24.7C94.6-88.1,93.7-87.3,93.9-86.8L93.9-86.8z"/>
					</g>
				</g>
			</g>
		</g>
		<g>
			<g>
				<path fill="#405B7C" d="M158.9-94.8c-22.3-1.4-18,36.4-21.9,52.4c-2.2,9.3-4,24.3,5.5,29.8c11.8,6.4,18-5.5,21.3-15.8
					c2-6.6,3.7-13.7,6.7-20.1c2-5.1,6.1-10,7.7-15.1C178.2-63.7,187.5-93.1,158.9-94.8z"/>
				<g>
					<path fill="#78D1C4" d="M159.1-95.4c-16.3-0.6-18.8,18.7-20,31c-0.9,8.2-1.4,16.2-3,24.3c-1.7,8.4-2.8,18.8,3.3,25.8
						c6.1,6.9,14.9,4,19.6-2.4c2.5-3.5,4-7.7,5.3-11.7c2.5-7.8,4.4-15.6,8-23c2.8-5.7,6.3-10.4,7.4-16.7c0.9-5.3,0.7-10.9-1.4-15.9
						C175.1-91.9,166.9-94.8,159.1-95.4c-0.5,0-1.1,1.1-0.4,1.1c8.2,0.6,15.6,3.7,18.9,11.7c2,4.9,1.7,10.6,0.8,15.7
						c-1.3,7.2-6.2,13.2-9.2,19.8c-4.8,10.6-5.1,24.8-14,33.2c-5.1,4.8-12.8,2-16.5-3c-3-4.1-3.2-10.1-2.9-15
						c0.4-7.8,2.7-15.4,3.4-23.2c1.2-12.9,0.8-39.8,19.5-39.2C159.3-94.2,159.8-95.3,159.1-95.4z"/>
				</g>
			</g>
			<g>
				<g>
					<path fill="#405B7C" d="M162.6-82.6c-0.3,8.4-4.4,16.6-2.3,25.1c1.6,5.3,7.4,12.7,6.5,18.4"/>
					<g>
						<path fill="#78D1C4" d="M162.1-82.5c-0.5,7.9-3.6,15.5-2.6,23.5c0.9,7.1,7.4,12.5,6.8,20c-0.1,0.8,1,0.3,1-0.3
							c0.5-6-3.4-11.2-5.7-16.5c-3.8-8.5,0.9-18.3,1.5-27C163.2-83.5,162.1-83.1,162.1-82.5L162.1-82.5z"/>
					</g>
				</g>
				<g>
					<path fill="#405B7C" d="M162.6-82.6c-4,7.4-4.5,15.1-10.7,21.4c-4.1,3.8-14.5,10.6-14.5,16.6"/>
					<g>
						<path fill="#78D1C4" d="M162.2-82.8c-2,3.9-3.3,7.9-4.9,12c-2.1,5.4-5.5,9.1-9.8,12.7c-4.2,3.4-10.1,7.7-10.6,13.5
							c-0.1,0.8,1,0.3,1-0.3c0.7-7.5,9.8-11.2,14.3-16.1c5.7-6.2,7.1-14.2,10.8-21.5C163.4-83.2,162.5-83.4,162.2-82.8L162.2-82.8z"
							/>
					</g>
				</g>
			</g>
		</g>
		<g>
			<g>
				<path fill="#78D1C4" d="M232.4-110.9c-3-3.1-5.4-6.8-7.1-10.7c-0.5-1.2-0.9-2.5-1.1-3.8c-0.4-2.6,2.3-6.1,4.9-4.2
					c2.2,1.7,3.6,4.9,4.4,7.5c0.2,0.7,1,0,1-0.4c0.5-2.8,3-6.3,6.2-5.5c4.3,1.1,1,7.6-0.8,9.4c-1.6,1.5-3.3,2.8-4.9,4.4
					c-1.2,1.2-1.5,3.3-2.9,3.3c-0.5,0-1.1,1.1-0.4,1.1c0.4,0,0.9,0,1.3,0c0.3,0,0.6-0.3,0.7-0.6c2-6,13.9-9.7,9-17.6
					c-3.1-5-8.9,2.8-9.4,5.7c0.3-0.1,0.7-0.3,1-0.4c-1-3.5-7.5-14.1-10.6-6.1c-2.6,6.6,3.3,14.3,7.7,18.9
					C232-109.5,232.9-110.5,232.4-110.9z"/>
			</g>
		</g>
		<g>
			<g>
				<path fill="#78D1C4" d="M140.9-208.2c-4.4-1.7-8-6.2-10.1-10.3c-1.1-2.1-1.9-9.6,2.4-8.3c2.5,0.8,4,4,5,6.2
					c0.2,0.5,0.9-0.1,1-0.4c1-2.9,4.5-6.7,7.8-4.4c2.8,2,0.1,5.9-1,8c-1.9,3.5-4.8,7.1-5.7,11.1c-0.2,0.8,0.8,0.6,1,0
					c0.8-3.6,3.3-6.9,5.1-10c1.3-2.2,3.1-5,2.9-7.6c-0.3-2.9-3.5-3.7-5.7-2.9c-2.6,0.8-4.4,3.4-5.3,5.9c0.3-0.1,0.6-0.3,1-0.4
					c-1-2.3-3-6.3-6-6.7c-2.3-0.3-3.6,1.6-4,3.7c-1.4,6.9,5,14.8,11.2,17.2C140.8-206.9,141.5-208,140.9-208.2L140.9-208.2z"/>
			</g>
		</g>
	</g>
</pattern>
<g>
	<rect x="0" y="0" fill="url(#New_Pattern_Swatch_5)" width="800" height="800"/>
</g>
</svg>
